<svg width="32" height="32" viewBox="0 0 32 32" fill="none" xmlns="http://www.w3.org/2000/svg">
<path d="M14.1333 18.4L11.2667 15.5333C11.0222 15.2888 10.7111 15.1666 10.3333 15.1666C9.95555 15.1666 9.64444 15.2888 9.4 15.5333C9.15555 15.7777 9.03333 16.0888 9.03333 16.4666C9.03333 16.8444 9.15555 17.1555 9.4 17.4L13.2 21.2C13.4667 21.4666 13.7778 21.6 14.1333 21.6C14.4889 21.6 14.8 21.4666 15.0667 21.2L22.6 13.6666C22.8444 13.4222 22.9667 13.1111 22.9667 12.7333C22.9667 12.3555 22.8444 12.0444 22.6 11.8C22.3556 11.5555 22.0444 11.4333 21.6667 11.4333C21.2889 11.4333 20.9778 11.5555 20.7333 11.8L14.1333 18.4ZM16 29.3333C14.1556 29.3333 12.4222 28.9833 10.8 28.2833C9.17777 27.5833 7.76666 26.6333 6.56666 25.4333C5.36666 24.2333 4.41666 22.8222 3.71666 21.2C3.01666 19.5777 2.66666 17.8444 2.66666 16C2.66666 14.1555 3.01666 12.4222 3.71666 10.8C4.41666 9.17774 5.36666 7.76663 6.56666 6.56663C7.76666 5.36663 9.17777 4.41663 10.8 3.71663C12.4222 3.01663 14.1556 2.66663 16 2.66663C17.8444 2.66663 19.5778 3.01663 21.2 3.71663C22.8222 4.41663 24.2333 5.36663 25.4333 6.56663C26.6333 7.76663 27.5833 9.17774 28.2833 10.8C28.9833 12.4222 29.3333 14.1555 29.3333 16C29.3333 17.8444 28.9833 19.5777 28.2833 21.2C27.5833 22.8222 26.6333 24.2333 25.4333 25.4333C24.2333 26.6333 22.8222 27.5833 21.2 28.2833C19.5778 28.9833 17.8444 29.3333 16 29.3333Z" fill="#009965"/>
</svg>
