<svg width="32" height="32" viewBox="0 0 32 32" fill="none" xmlns="http://www.w3.org/2000/svg">
<path d="M14.1334 18.4001L11.2667 15.5334C11.0222 15.289 10.7111 15.1667 10.3334 15.1667C9.95558 15.1667 9.64446 15.289 9.40002 15.5334C9.15558 15.7779 9.03335 16.089 9.03335 16.4667C9.03335 16.8445 9.15558 17.1556 9.40002 17.4001L13.2 21.2001C13.4667 21.4667 13.7778 21.6001 14.1334 21.6001C14.4889 21.6001 14.8 21.4667 15.0667 21.2001L22.6 13.6667C22.8445 13.4223 22.9667 13.1112 22.9667 12.7334C22.9667 12.3556 22.8445 12.0445 22.6 11.8001C22.3556 11.5556 22.0445 11.4334 21.6667 11.4334C21.2889 11.4334 20.9778 11.5556 20.7334 11.8001L14.1334 18.4001ZM16 29.3334C14.1556 29.3334 12.4222 28.9834 10.8 28.2834C9.1778 27.5834 7.76669 26.6334 6.56669 25.4334C5.36669 24.2334 4.41669 22.8223 3.71669 21.2001C3.01669 19.5779 2.66669 17.8445 2.66669 16.0001C2.66669 14.1556 3.01669 12.4223 3.71669 10.8001C4.41669 9.17786 5.36669 7.76675 6.56669 6.56675C7.76669 5.36675 9.1778 4.41675 10.8 3.71675C12.4222 3.01675 14.1556 2.66675 16 2.66675C17.8445 2.66675 19.5778 3.01675 21.2 3.71675C22.8222 4.41675 24.2334 5.36675 25.4334 6.56675C26.6334 7.76675 27.5834 9.17786 28.2834 10.8001C28.9834 12.4223 29.3334 14.1556 29.3334 16.0001C29.3334 17.8445 28.9834 19.5779 28.2834 21.2001C27.5834 22.8223 26.6334 24.2334 25.4334 25.4334C24.2334 26.6334 22.8222 27.5834 21.2 28.2834C19.5778 28.9834 17.8445 29.3334 16 29.3334Z" fill="#FFA28B"/>
</svg>
