<svg width="9" height="16" viewBox="0 0 9 16" fill="none" xmlns="http://www.w3.org/2000/svg">
<path d="M8.93334 7.99977C8.93334 8.17755 8.90556 8.34422 8.85 8.49977C8.79445 8.65533 8.7 8.79977 8.56667 8.9331L2.43334 15.0664C2.18889 15.3109 1.87778 15.4331 1.5 15.4331C1.12223 15.4331 0.811114 15.3109 0.566669 15.0664C0.322225 14.822 0.200003 14.5109 0.200003 14.1331C0.200003 13.7553 0.322225 13.4442 0.566669 13.1998L5.76667 7.99977L0.566669 2.79977C0.322225 2.55533 0.200003 2.24422 0.200003 1.86644C0.200003 1.48866 0.322225 1.17755 0.566669 0.933105C0.811114 0.688661 1.12223 0.566438 1.5 0.566438C1.87778 0.566438 2.18889 0.688661 2.43334 0.933105L8.56667 7.06644C8.7 7.19977 8.79445 7.34422 8.85 7.49977C8.90556 7.65533 8.93334 7.82199 8.93334 7.99977Z" fill="#647E9B"/>
</svg>
