<svg width="32" height="32" viewBox="0 0 32 32" fill="none" xmlns="http://www.w3.org/2000/svg">
<g clip-path="url(#clip0_2803_64764)">
<path d="M16.5393 21.2381L15.0312 21.0338C14.8269 20.5849 14.7865 20.4626 14.6239 20.015L15.5204 18.7918C15.765 18.4652 15.7247 18.0176 15.4384 17.7313L14.2153 16.5082C13.9303 16.2232 13.4814 16.1816 13.1548 16.4262L11.9317 17.3228C11.4828 17.1185 11.3605 17.0781 10.9128 16.9155L10.7086 15.4074C10.6682 15.0001 10.3013 14.7139 9.89275 14.7139H8.14002C7.73273 14.7139 7.40615 14.9988 7.32419 15.4074L7.11992 16.9155C6.67103 17.1198 6.54872 17.1601 6.10108 17.3228L4.87795 16.4262C4.55136 16.1816 4.10373 16.222 3.81747 16.5082L2.59433 17.7313C2.30936 18.0163 2.26775 18.4652 2.51237 18.7918L3.40889 20.015C3.20462 20.4639 3.16427 20.5862 3.00161 21.0338L1.4935 21.2381C1.08622 21.2784 0.799988 21.6454 0.799988 22.0539V23.8066C0.799988 24.2139 1.08496 24.5405 1.4935 24.6224L3.00161 24.8267C3.20588 25.2756 3.24623 25.3979 3.40889 25.8456L2.51237 27.0687C2.26774 27.3953 2.30809 27.8429 2.59433 28.1292L3.81747 29.3523C4.10244 29.6373 4.55133 29.6789 4.87795 29.4343L6.10108 28.5377C6.54997 28.742 6.67229 28.7824 7.11992 28.945L7.32419 30.4531C7.36454 30.8604 7.73147 31.1467 8.14002 31.1467H9.89275C10.3 31.1467 10.6266 30.8617 10.7086 30.4531L10.9128 28.945C11.3617 28.7408 11.484 28.7004 11.9317 28.5377L13.1548 29.4343C13.4814 29.6789 13.929 29.6385 14.2153 29.3523L15.4384 28.1292C15.7234 27.8442 15.765 27.3953 15.5204 27.0687L14.6239 25.8456C14.8281 25.3967 14.8685 25.2744 15.0312 24.8267L16.5393 24.6224C16.9465 24.5821 17.2328 24.2152 17.2328 23.8066V22.0539C17.2731 21.605 16.9478 21.2797 16.5393 21.2381ZM9.03664 25.9943C7.32174 25.9943 5.91199 24.5845 5.91199 22.8696C5.91199 21.1547 7.32174 19.745 9.03664 19.745C10.7515 19.745 12.1613 21.1547 12.1613 22.8696C12.1613 24.5845 10.7515 25.9943 9.03664 25.9943Z" fill="#FD5A2C"/>
<path d="M30.3999 7.37772L28.8917 7.17345C28.6875 6.72456 28.6471 6.60224 28.4845 6.15461L29.381 4.93147C29.6256 4.60489 29.5853 4.15726 29.299 3.871L28.0759 2.64786C27.7909 2.36288 27.342 2.32128 27.0154 2.5659L25.7923 3.46242C25.3434 3.25815 25.2211 3.2178 24.7734 3.05514L24.5692 1.54703C24.5288 1.13975 24.1619 0.853516 23.7533 0.853516H22.0006C21.5933 0.853516 21.2667 1.13849 21.1848 1.54703L20.9805 3.05514C20.5316 3.25941 20.4093 3.29976 19.9617 3.46242L18.7385 2.5659C18.412 2.32127 17.9643 2.36162 17.6781 2.64786L16.4549 3.871C16.17 4.15597 16.1283 4.60486 16.373 4.93147L17.2695 6.15461C17.0652 6.6035 17.0249 6.72581 16.8622 7.17345L15.3541 7.37772C14.9468 7.41807 14.6606 7.785 14.6606 8.19354V9.94627C14.6606 10.3536 14.9456 10.6801 15.3541 10.7621L16.8622 10.9664C17.0665 11.4153 17.1068 11.5376 17.2695 11.9852L16.373 13.2083C16.1283 13.5349 16.1687 13.9826 16.4549 14.2688L17.6781 15.492C17.963 15.7769 18.4119 15.8185 18.7385 15.5739L19.9617 14.6774C20.4106 14.8817 20.5329 14.922 20.9805 15.0847L21.1848 16.5928C21.2251 17.0001 21.5921 17.2863 22.0006 17.2863H23.7533C24.1606 17.2863 24.4872 17.0013 24.5692 16.5928L24.7734 15.0847C25.2223 14.8804 25.3446 14.8401 25.7923 14.6774L27.0154 15.5739C27.342 15.8185 27.7896 15.7782 28.0759 15.492L29.299 14.2688C29.584 13.9838 29.6256 13.535 29.381 13.2083L28.4845 11.9852C28.6887 11.5363 28.7291 11.414 28.8917 10.9664L30.3999 10.7621C30.8071 10.7217 31.0934 10.3548 31.0934 9.94627V8.19354C31.1337 7.74465 30.8084 7.41933 30.3999 7.37772ZM22.8972 12.1326C21.1823 12.1326 19.7726 10.7229 19.7726 9.00798C19.7726 7.29308 21.1823 5.88333 22.8972 5.88333C24.6121 5.88333 26.0219 7.29308 26.0219 9.00798C26.0219 10.7229 24.6121 12.1326 22.8972 12.1326Z" fill="#444CFC"/>
<path d="M13.3958 3.85094C13.5509 4.00604 13.6379 4.21535 13.6379 4.43476C13.6379 4.65417 13.5509 4.86348 13.3958 5.01859L10.4527 7.96166C10.1299 8.28446 9.60788 8.28446 9.28507 7.96166C8.96227 7.63886 8.96227 7.11682 9.28507 6.79401L10.8184 5.26069H7.03674C5.88549 5.26069 4.94733 6.19757 4.94733 7.35011V13.341C4.94733 13.7975 4.57788 14.167 4.1214 14.167C3.66492 14.167 3.29547 13.7975 3.29547 13.341V7.35011C3.29547 5.28719 4.9738 3.6088 7.03548 3.6088H10.8171L9.28381 2.07674C8.96101 1.75394 8.96101 1.2319 9.28381 0.909095C9.60662 0.586291 10.1287 0.586291 10.4515 0.909095L13.3945 3.85091L13.3958 3.85094Z" fill="#FEC5B5"/>
<path d="M18.5 28.15C18.3449 27.9949 18.2579 27.7856 18.2579 27.5662C18.2579 27.3468 18.3449 27.1375 18.5 26.9824L21.443 24.0393C21.7659 23.7165 22.2879 23.7165 22.6107 24.0393C22.9335 24.3621 22.9335 24.8841 22.6107 25.2069L21.0774 26.7403H24.859C26.0103 26.7403 26.9484 25.8034 26.9484 24.6508V18.6599C26.9484 18.2034 27.3179 17.834 27.7744 17.834C28.2309 17.834 28.6003 18.2034 28.6003 18.6599V24.6508C28.6003 26.7137 26.922 28.3921 24.8603 28.3921H21.0786L22.612 29.9242C22.9348 30.247 22.9348 30.769 22.612 31.0918C22.2892 31.4147 21.7671 31.4147 21.4443 31.0918L18.5012 28.15L18.5 28.15Z" fill="#FEC5B5"/>
</g>
<defs>
<clipPath id="clip0_2803_64764">
<rect width="32" height="32" fill="white"/>
</clipPath>
</defs>
</svg>
