<svg width="28" height="28" viewBox="0 0 28 28" fill="none" xmlns="http://www.w3.org/2000/svg">
<path d="M14 0C6.28 0 0 6.28 0 14C0 21.72 6.28 28 14 28C21.72 28 28 21.72 28 14C28 6.28 21.72 0 14 0ZM6.87008 8.40992H14C14.55 8.40992 15 8.8599 15 9.40992C15 9.95994 14.55 10.4099 14 10.4099H6.87008C6.32006 10.4099 5.87008 9.95994 5.87008 9.40992C5.87008 8.8599 6.32006 8.40992 6.87008 8.40992ZM21.1299 19.5901H14C13.45 19.5901 13 19.1401 13 18.5901C13 18.0401 13.45 17.5901 14 17.5901H21.1299C21.6799 17.5901 22.1299 18.0401 22.1299 18.5901C22.1299 19.1401 21.6799 19.5901 21.1299 19.5901ZM21.1299 15H6.87008C6.32006 15 5.87008 14.55 5.87008 14C5.87008 13.45 6.32006 13 6.87008 13H21.1299C21.6799 13 22.1299 13.45 22.1299 14C22.1299 14.55 21.6799 15 21.1299 15Z" fill="white"/>
</svg>
