<svg width="189" height="26" viewBox="0 0 189 26" fill="none" xmlns="http://www.w3.org/2000/svg">
<path d="M175.608 12.6262C176.448 11.7955 177.459 11.3803 178.641 11.3803C179.094 11.3803 179.522 11.4457 179.927 11.5721L174.793 17.5609C174.499 16.9814 174.348 16.3437 174.348 15.6445C174.348 14.4632 174.768 13.4568 175.608 12.6262ZM180.62 19.931L188.173 11.148C188.173 11.148 187.691 10.3491 186.969 9.43857C187.019 9.36583 186.928 9.28665 186.515 8.88861C185.965 8.25686 185.323 7.63824 184.665 7.24283C182.925 5.96573 180.92 5.3161 178.641 5.3161C175.761 5.3161 173.314 6.32251 171.303 8.33438C169.29 10.3467 168.285 12.7833 168.285 15.6445C168.285 18.5058 169.29 20.9467 171.303 22.9681C173.314 24.9895 175.761 26 178.641 26H188.968V19.9086L180.62 19.931ZM158.541 18.6763C157.701 19.5168 156.7 19.9363 155.537 19.9363C154.355 19.9363 153.345 19.5168 152.505 18.6763C151.665 17.8366 151.245 16.8259 151.245 15.6445C151.245 14.4632 151.665 13.4568 152.505 12.6262C153.345 11.7955 154.355 11.3803 155.537 11.3803C156.7 11.3803 157.701 11.7955 158.541 12.6262C159.381 13.4568 159.801 14.4632 159.801 15.6445C159.801 16.8259 159.381 17.8366 158.541 18.6763ZM159.801 5.98076C159.173 5.53765 157.752 5.3161 155.537 5.3161C152.657 5.3161 150.211 6.32251 148.199 8.33438C146.187 10.3467 145.181 12.7833 145.181 15.6445C145.181 18.5058 146.187 20.9467 148.199 22.9681C150.211 24.9895 152.657 26 155.537 26C158.398 26 160.834 24.9895 162.847 22.9681C164.858 20.9467 165.865 18.5058 165.865 15.6445V0H159.801V5.98076ZM135.852 18.6763C135.011 19.5168 134.01 19.9363 132.847 19.9363C131.666 19.9363 130.655 19.5168 129.815 18.6763C128.975 17.8366 128.555 16.8259 128.555 15.6445C128.555 14.4632 128.975 13.4568 129.815 12.6262C130.655 11.7955 131.666 11.3803 132.847 11.3803C134.01 11.3803 135.011 11.7955 135.852 12.6262C136.691 13.4568 137.112 14.4632 137.112 15.6445C137.112 16.8259 136.691 17.8366 135.852 18.6763ZM132.847 5.3161C129.967 5.3161 127.521 6.32251 125.51 8.33438C123.497 10.3467 122.491 12.7833 122.491 15.6445C122.491 18.5058 123.497 20.9467 125.51 22.9681C127.521 24.9895 129.967 26 132.847 26C135.708 26 138.145 24.9895 140.157 22.9681C142.169 20.9467 143.175 18.5058 143.175 15.6445C143.175 12.7833 142.169 10.3467 140.157 8.33438C138.145 6.32251 135.708 5.3161 132.847 5.3161ZM116.639 8.33438C118.651 10.3467 119.657 12.7833 119.657 15.6445V26H113.593V15.6445C113.593 14.4632 113.173 13.4568 112.334 12.6262C111.494 11.7955 110.492 11.3803 109.329 11.3803C108.148 11.3803 107.137 11.7955 106.297 12.6262C105.457 13.4568 105.038 14.4632 105.038 15.6445V26H98.9738V15.6445C98.9738 14.4632 98.5536 13.4568 97.7139 12.6262C96.8737 11.7955 95.8725 11.3803 94.7096 11.3803C93.5279 11.3803 92.5173 11.7955 91.6773 12.6262C90.8373 13.4568 90.4176 14.4632 90.4176 15.6445V26H84.3536V15.6445C84.3536 12.7833 85.3596 10.3467 87.3719 8.33438C89.3835 6.32251 91.8297 5.3161 94.7096 5.3161C97.5517 5.3161 99.9983 6.3039 102.047 8.27904C104.059 6.3039 106.487 5.3161 109.329 5.3161C112.19 5.3161 114.627 6.32251 116.639 8.33438ZM75.0143 5.3161H81.1057V15.6445C81.1057 18.5242 80.0952 20.9701 78.0738 22.9822C76.0524 24.9943 73.6108 26 70.7499 26C67.8885 26 65.4517 24.9943 63.4401 22.9822C61.428 20.9701 60.4218 18.5242 60.4218 15.6445C60.4218 12.7833 61.428 10.3467 63.4401 8.33438C65.4517 6.32251 67.8885 5.3161 70.7499 5.3161H73.6296V11.3803H70.7499C69.5684 11.3803 68.5625 11.8001 67.7319 12.6402C66.901 13.4802 66.4858 14.4814 66.4858 15.6445C66.4858 16.8259 66.901 17.8366 67.7319 18.6763C68.5625 19.5168 69.5684 19.9363 70.7499 19.9363C71.9311 19.9363 72.9418 19.5168 73.782 18.6763C74.6217 17.8366 75.0419 16.8259 75.0419 15.6445L75.0143 5.3161ZM49.1898 12.6262C48.3498 13.4568 47.9299 14.4632 47.9299 15.6445C47.9299 16.8259 48.3498 17.8366 49.1898 18.6763C50.0297 19.5168 51.0404 19.9363 52.2221 19.9363C53.385 19.9363 54.3909 19.5117 55.2399 18.6623L55.9876 17.9148L60.2796 22.2066L59.5317 22.9822C57.5199 24.9943 55.0833 26 52.2221 26C49.3422 26 46.896 24.9895 44.8844 22.9681C42.8721 20.9467 41.8661 18.5058 41.8661 15.6445C41.8661 12.7833 42.8721 10.3467 44.8844 8.33438C46.896 6.32251 49.3422 5.3161 52.2221 5.3161C55.0833 5.3161 57.5199 6.32251 59.5317 8.33438L60.2796 9.08204L55.9876 13.3738L55.2399 12.6262C54.3909 11.7955 53.385 11.3803 52.2221 11.3803C51.0404 11.3803 50.0297 11.7955 49.1898 12.6262ZM30.2204 12.6262C29.3804 13.4568 28.9604 14.4632 28.9604 15.6445C28.9604 16.8259 29.3804 17.8366 30.2204 18.6763C31.0603 19.5168 32.0708 19.9363 33.2525 19.9363C34.4153 19.9363 35.4213 19.5117 36.2705 18.6623L37.0182 17.9148L41.3102 22.2066L40.5623 22.9822C38.5502 24.9943 36.1136 26 33.2525 26C30.3725 26 27.9266 24.9895 25.915 22.9681C23.9026 20.9467 22.8967 18.5058 22.8967 15.6445C22.8967 12.7833 23.9026 10.3467 25.915 8.33438C27.9266 6.32251 30.3725 5.3161 33.2525 5.3161C36.1136 5.3161 38.5502 6.32251 40.5623 8.33438L41.3102 9.08204L37.0182 13.3738L36.2705 12.6262C35.4213 11.7955 34.4153 11.3803 33.2525 11.3803C32.0708 11.3803 31.0603 11.7955 30.2204 12.6262ZM13.3603 18.6763C12.52 19.5168 11.5189 19.9363 10.356 19.9363C9.17428 19.9363 8.16379 19.5168 7.32377 18.6763C6.48375 17.8366 6.06389 16.8259 6.06389 15.6445C6.06389 14.4632 6.48375 13.4568 7.32377 12.6262C8.16379 11.7955 9.17428 11.3803 10.356 11.3803C11.5189 11.3803 12.52 11.7955 13.3603 12.6262C14.1999 13.4568 14.62 14.4632 14.62 15.6445C14.62 16.8259 14.1999 17.8366 13.3603 18.6763ZM10.356 5.3161C7.47609 5.3161 5.02991 6.32251 3.01835 8.33438C1.00603 10.3467 0 12.7833 0 15.6445C0 18.5058 1.00603 20.9467 3.01835 22.9681C5.02991 24.9895 7.47609 26 10.356 26C13.2171 26 15.6537 24.9895 17.6657 22.9681C19.6776 20.9467 20.684 18.5058 20.684 15.6445C20.684 12.7833 19.6776 10.3467 17.6657 8.33438C15.6537 6.32251 13.2171 5.3161 10.356 5.3161Z" fill="white"/>
</svg>
