<svg width="219" height="30" viewBox="0 0 219 30" fill="none" xmlns="http://www.w3.org/2000/svg">
<path d="M202.625 14.5687C203.594 13.6102 204.76 13.1311 206.124 13.1311C206.647 13.1311 207.141 13.2065 207.608 13.3524L201.685 20.2626C201.345 19.5939 201.171 18.8581 201.171 18.0513C201.171 16.6883 201.656 15.5271 202.625 14.5687ZM208.407 22.9973L217.122 12.8631C217.122 12.8631 216.567 11.9413 215.734 10.8907C215.791 10.8067 215.686 10.7154 215.21 10.2561C214.575 9.52715 213.835 8.81335 213.075 8.35711C211.067 6.88354 208.753 6.13396 206.124 6.13396C202.801 6.13396 199.978 7.2952 197.657 9.61659C195.335 11.9385 194.174 14.75 194.174 18.0513C194.174 21.3529 195.335 24.1693 197.657 26.5017C199.978 28.8341 202.801 30 206.124 30H218.041V22.9714L208.407 22.9973ZM182.932 21.5496C181.962 22.5193 180.807 23.0034 179.465 23.0034C178.102 23.0034 176.936 22.5193 175.967 21.5496C174.998 20.5807 174.513 19.4145 174.513 18.0513C174.513 16.6883 174.998 15.5271 175.967 14.5687C176.936 13.6102 178.102 13.1311 179.465 13.1311C180.807 13.1311 181.962 13.6102 182.932 14.5687C183.901 15.5271 184.386 16.6883 184.386 18.0513C184.386 19.4145 183.901 20.5807 182.932 21.5496ZM184.386 6.90088C183.661 6.3896 182.021 6.13396 179.465 6.13396C176.143 6.13396 173.32 7.2952 170.999 9.61659C168.677 11.9385 167.516 14.75 167.516 18.0513C167.516 21.3529 168.677 24.1693 170.999 26.5017C173.32 28.8341 176.143 30 179.465 30C182.767 30 185.578 28.8341 187.9 26.5017C190.221 24.1693 191.383 21.3529 191.383 18.0513V0H184.386V6.90088ZM156.752 21.5496C155.782 22.5193 154.627 23.0034 153.285 23.0034C151.922 23.0034 150.756 22.5193 149.787 21.5496C148.817 20.5807 148.333 19.4145 148.333 18.0513C148.333 16.6883 148.817 15.5271 149.787 14.5687C150.756 13.6102 151.922 13.1311 153.285 13.1311C154.627 13.1311 155.782 13.6102 156.752 14.5687C157.721 15.5271 158.206 16.6883 158.206 18.0513C158.206 19.4145 157.721 20.5807 156.752 21.5496ZM153.285 6.13396C149.962 6.13396 147.14 7.2952 144.819 9.61659C142.497 11.9385 141.336 14.75 141.336 18.0513C141.336 21.3529 142.497 24.1693 144.819 26.5017C147.14 28.8341 149.962 30 153.285 30C156.587 30 159.398 28.8341 161.72 26.5017C164.041 24.1693 165.202 21.3529 165.202 18.0513C165.202 14.75 164.041 11.9385 161.72 9.61659C159.398 7.2952 156.587 6.13396 153.285 6.13396ZM134.584 9.61659C136.905 11.9385 138.066 14.75 138.066 18.0513V30H131.069V18.0513C131.069 16.6883 130.585 15.5271 129.616 14.5687C128.646 13.6102 127.491 13.1311 126.149 13.1311C124.786 13.1311 123.62 13.6102 122.651 14.5687C121.681 15.5271 121.197 16.6883 121.197 18.0513V30H114.201V18.0513C114.201 16.6883 113.716 15.5271 112.747 14.5687C111.777 13.6102 110.622 13.1311 109.28 13.1311C107.917 13.1311 106.751 13.6102 105.782 14.5687C104.812 15.5271 104.328 16.6883 104.328 18.0513V30H97.3311V18.0513C97.3311 14.75 98.4918 11.9385 100.814 9.61659C103.135 7.2952 105.957 6.13396 109.28 6.13396C112.56 6.13396 115.383 7.27373 117.746 9.55274C120.068 7.27373 122.869 6.13396 126.149 6.13396C129.451 6.13396 132.262 7.2952 134.584 9.61659ZM86.5549 6.13396H93.5835V18.0513C93.5835 21.374 92.4176 24.1963 90.0852 26.5179C87.7528 28.8396 84.9355 30 81.6345 30C78.3329 30 75.5212 28.8396 73.2001 26.5179C70.8784 24.1963 69.7174 21.374 69.7174 18.0513C69.7174 14.75 70.8784 11.9385 73.2001 9.61659C75.5212 7.2952 78.3329 6.13396 81.6345 6.13396H84.9573V13.1311H81.6345C80.2713 13.1311 79.1106 13.6154 78.1521 14.5849C77.1934 15.5541 76.7143 16.7093 76.7143 18.0513C76.7143 19.4145 77.1934 20.5807 78.1521 21.5496C79.1106 22.5193 80.2713 23.0034 81.6345 23.0034C82.9975 23.0034 84.1637 22.5193 85.1331 21.5496C86.102 20.5807 86.5869 19.4145 86.5869 18.0513L86.5549 6.13396ZM56.7575 14.5687C55.7883 15.5271 55.3037 16.6883 55.3037 18.0513C55.3037 19.4145 55.7883 20.5807 56.7575 21.5496C57.7266 22.5193 58.8928 23.0034 60.2563 23.0034C61.5981 23.0034 62.7588 22.5135 63.7384 21.5334L64.6011 20.671L69.5534 25.623L68.6905 26.5179C66.3691 28.8396 63.5576 30 60.2563 30C56.9333 30 54.1108 28.8341 51.7897 26.5017C49.4678 24.1693 48.3071 21.3529 48.3071 18.0513C48.3071 14.75 49.4678 11.9385 51.7897 9.61659C54.1108 7.2952 56.9333 6.13396 60.2563 6.13396C63.5576 6.13396 66.3691 7.2952 68.6905 9.61659L69.5534 10.4793L64.6011 15.4313L63.7384 14.5687C62.7588 13.6102 61.5981 13.1311 60.2563 13.1311C58.8928 13.1311 57.7266 13.6102 56.7575 14.5687ZM34.8697 14.5687C33.9005 15.5271 33.4159 16.6883 33.4159 18.0513C33.4159 19.4145 33.9005 20.5807 34.8697 21.5496C35.8388 22.5193 37.0048 23.0034 38.3683 23.0034C39.71 23.0034 40.8707 22.5135 41.8506 21.5334L42.7133 20.671L47.6656 25.623L46.8027 26.5179C44.481 28.8396 41.6695 30 38.3683 30C35.0452 30 32.223 28.8341 29.9019 26.5017C27.58 24.1693 26.4193 21.3529 26.4193 18.0513C26.4193 14.75 27.58 11.9385 29.9019 9.61659C32.223 7.2952 35.0452 6.13396 38.3683 6.13396C41.6695 6.13396 44.481 7.2952 46.8027 9.61659L47.6656 10.4793L42.7133 15.4313L41.8506 14.5687C40.8707 13.6102 39.71 13.1311 38.3683 13.1311C37.0048 13.1311 35.8388 13.6102 34.8697 14.5687ZM15.4157 21.5496C14.4461 22.5193 13.291 23.0034 11.9492 23.0034C10.5857 23.0034 9.41975 22.5193 8.4505 21.5496C7.48125 20.5807 6.9968 19.4145 6.9968 18.0513C6.9968 16.6883 7.48125 15.5271 8.4505 14.5687C9.41975 13.6102 10.5857 13.1311 11.9492 13.1311C13.291 13.1311 14.4461 13.6102 15.4157 14.5687C16.3845 15.5271 16.8693 16.6883 16.8693 18.0513C16.8693 19.4145 16.3845 20.5807 15.4157 21.5496ZM11.9492 6.13396C8.62626 6.13396 5.80374 7.2952 3.48271 9.61659C1.1608 11.9385 0 14.75 0 18.0513C0 21.3529 1.1608 24.1693 3.48271 26.5017C5.80374 28.8341 8.62626 30 11.9492 30C15.2505 30 18.062 28.8341 20.3835 26.5017C22.7049 24.1693 23.8662 21.3529 23.8662 18.0513C23.8662 14.75 22.7049 11.9385 20.3835 9.61659C18.062 7.2952 15.2505 6.13396 11.9492 6.13396Z" fill="#009965" fill-opacity="0.9"/>
</svg>
