<svg width="23" height="30" viewBox="0 0 23 30" fill="none" xmlns="http://www.w3.org/2000/svg">
<path fill-rule="evenodd" clip-rule="evenodd" d="M1.98681 17.9055C1.66522 17.4335 1.37922 16.9382 1.13117 16.4237C1.11984 16.4021 1.10951 16.3804 1.09984 16.3571C0.3032 14.6725 -0.0705568 12.819 0.0109733 10.9572C0.0925034 9.09553 0.62686 7.28179 1.56772 5.67325C2.50858 4.06471 3.82756 2.70991 5.41032 1.72628C6.99307 0.742659 8.79184 0.159899 10.6507 0.0285162C12.5096 -0.102866 14.3724 0.221095 16.0778 0.972316C17.7832 1.72354 19.2796 2.87935 20.4373 4.33956C21.5951 5.79978 22.3793 7.52033 22.7218 9.35206C23.0644 11.1838 22.9551 13.0715 22.4033 14.8514C22.2438 15.3674 22.0477 15.8713 21.8166 16.3594C21.8069 16.3818 21.7966 16.4034 21.7852 16.4261C21.5372 16.9405 21.2512 17.4358 20.9296 17.9078L15.192 27.831C14.8163 28.4898 14.273 29.0375 13.6172 29.4184C12.9615 29.7993 12.2166 30 11.4582 30C10.6998 30 9.95493 29.7993 9.29917 29.4184C8.6434 29.0375 8.1001 28.4898 7.72442 27.831L1.98681 17.9055ZM11.4582 7.06097C10.2902 7.06088 9.15825 7.46579 8.2553 8.20672C7.35236 8.94765 6.73425 9.97874 6.50631 11.1243C6.27837 12.2699 6.4547 13.459 7.00526 14.4892C7.55581 15.5193 8.44652 16.3267 9.52561 16.7737C10.6047 17.2207 11.8054 17.2798 12.9232 16.9408C14.0409 16.6017 15.0065 15.8856 15.6555 14.9145C16.3044 13.9433 16.5965 12.7772 16.4821 11.6148C16.3676 10.4524 15.8536 9.36561 15.0277 8.53968C14.5595 8.07015 14.0031 7.69779 13.3906 7.44402C12.778 7.19025 12.1213 7.06007 11.4582 7.06097ZM13.7806 9.78683C13.2433 9.24937 12.5363 8.91483 11.7801 8.84021C11.0238 8.76559 10.2651 8.95551 9.63313 9.3776C9.0012 9.7997 8.53518 10.4279 8.31448 11.155C8.09377 11.8822 8.13204 12.6634 8.42276 13.3656C8.71349 14.0677 9.23868 14.6473 9.90884 15.0056C10.579 15.3639 11.3527 15.4787 12.098 15.3306C12.8434 15.1824 13.5143 14.7803 13.9964 14.1929C14.4786 13.6055 14.7421 12.8691 14.7422 12.1092C14.7428 11.6778 14.6581 11.2506 14.4931 10.8521C14.3281 10.4535 14.0859 10.0915 13.7806 9.78683ZM2.19539 14.3356C2.32909 14.7669 2.49298 15.1882 2.68585 15.5964L9.24979 26.949C9.46953 27.3424 9.79026 27.67 10.1789 27.8981C10.5675 28.1262 11.0099 28.2464 11.4605 28.2464C11.9111 28.2464 12.3536 28.1262 12.7422 27.8981C13.1308 27.67 13.4515 27.3424 13.6713 26.949L20.2352 15.5964C20.9038 14.1709 21.2151 12.604 21.1422 11.0312C21.0692 9.45834 20.6143 7.92695 19.8166 6.56944C19.019 5.21192 17.9027 4.06912 16.5642 3.23989C15.2258 2.41065 13.7055 1.91992 12.1348 1.81015C10.5641 1.70037 8.99031 1.97485 7.54952 2.60985C6.10873 3.24484 4.8443 4.22124 3.86558 5.45461C2.88686 6.68798 2.22331 8.14119 1.9323 9.68858C1.64129 11.236 1.73159 12.831 2.19539 14.3356Z" fill="#FFA155"/>
</svg>
