<svg width="16" height="9" viewBox="0 0 16 9" fill="none" xmlns="http://www.w3.org/2000/svg">
<path d="M8 0.0664701C7.82222 0.0664701 7.65556 0.0942478 7.5 0.149803C7.34445 0.205359 7.2 0.299804 7.06667 0.433137L0.933334 6.56647C0.68889 6.81092 0.566668 7.12203 0.566668 7.4998C0.566668 7.87758 0.68889 8.18869 0.933334 8.43314C1.17778 8.67758 1.48889 8.7998 1.86667 8.7998C2.24445 8.7998 2.55556 8.67758 2.8 8.43314L8 3.23314L13.2 8.43314C13.4444 8.67758 13.7556 8.7998 14.1333 8.7998C14.5111 8.7998 14.8222 8.67758 15.0667 8.43314C15.3111 8.18869 15.4333 7.87758 15.4333 7.4998C15.4333 7.12203 15.3111 6.81092 15.0667 6.56647L8.93333 0.433137C8.8 0.299804 8.65556 0.205359 8.5 0.149803C8.34445 0.0942478 8.17778 0.0664701 8 0.0664701Z" fill="#444CFC"/>
</svg>
