<svg width="52" height="52" viewBox="0 0 52 52" fill="none" xmlns="http://www.w3.org/2000/svg">
<circle cx="26.0001" cy="26" r="18.2" fill="#232536" fill-opacity="0.3"/>
<path d="M23.0747 34.1249L33.6372 27.3541C34.1428 27.0291 34.3956 26.5777 34.3956 25.9999C34.3956 25.4221 34.1428 24.9708 33.6372 24.6458L23.0747 17.8749C22.5331 17.5138 21.9824 17.4867 21.4226 17.7937C20.8629 18.1006 20.5831 18.5791 20.5831 19.2291V32.7708C20.5831 33.4207 20.8629 33.8992 21.4226 34.2062C21.9824 34.5131 22.5331 34.486 23.0747 34.1249ZM25.9997 47.6666C23.0025 47.6666 20.1858 47.0978 17.5497 45.9603C14.9136 44.8228 12.6206 43.2791 10.6706 41.3291C8.72056 39.3791 7.17681 37.086 6.03931 34.4499C4.90181 31.8138 4.33306 28.9971 4.33306 25.9999C4.33306 23.0027 4.90181 20.186 6.03931 17.5499C7.17681 14.9138 8.72056 12.6208 10.6706 10.6708C12.6206 8.72075 14.9136 7.177 17.5497 6.0395C20.1858 4.902 23.0025 4.33325 25.9997 4.33325C28.9969 4.33325 31.8136 4.902 34.4497 6.0395C37.0858 7.177 39.3789 8.72075 41.3289 10.6708C43.2789 12.6208 44.8226 14.9138 45.9601 17.5499C47.0976 20.186 47.6664 23.0027 47.6664 25.9999C47.6664 28.9971 47.0976 31.8138 45.9601 34.4499C44.8226 37.086 43.2789 39.3791 41.3289 41.3291C39.3789 43.2791 37.0858 44.8228 34.4497 45.9603C31.8136 47.0978 28.9969 47.6666 25.9997 47.6666ZM25.9997 43.3332C30.8386 43.3332 34.9372 41.6541 38.2956 38.2957C41.6539 34.9374 43.3331 30.8388 43.3331 25.9999C43.3331 21.161 41.6539 17.0624 38.2956 13.7041C34.9372 10.3458 30.8386 8.66658 25.9997 8.66658C21.1608 8.66658 17.0622 10.3458 13.7039 13.7041C10.3456 17.0624 8.66639 21.161 8.66639 25.9999C8.66639 30.8388 10.3456 34.9374 13.7039 38.2957C17.0622 41.6541 21.1608 43.3332 25.9997 43.3332Z" fill="white"/>
</svg>
