<svg width="44" height="44" viewBox="0 0 44 44" fill="none" xmlns="http://www.w3.org/2000/svg">
<path d="M18.7417 29.7917L29.3042 23.0208C29.8097 22.6958 30.0625 22.2444 30.0625 21.6667C30.0625 21.0889 29.8097 20.6375 29.3042 20.3125L18.7417 13.5417C18.2 13.1806 17.6493 13.1535 17.0896 13.4604C16.5299 13.7674 16.25 14.2458 16.25 14.8958V28.4375C16.25 29.0875 16.5299 29.566 17.0896 29.8729C17.6493 30.1799 18.2 30.1528 18.7417 29.7917ZM21.6667 43.3333C18.6694 43.3333 15.8528 42.7646 13.2167 41.6271C10.5806 40.4896 8.2875 38.9458 6.3375 36.9958C4.3875 35.0458 2.84375 32.7528 1.70625 30.1167C0.56875 27.4806 0 24.6639 0 21.6667C0 18.6694 0.56875 15.8528 1.70625 13.2167C2.84375 10.5806 4.3875 8.2875 6.3375 6.3375C8.2875 4.3875 10.5806 2.84375 13.2167 1.70625C15.8528 0.56875 18.6694 0 21.6667 0C24.6639 0 27.4806 0.56875 30.1167 1.70625C32.7528 2.84375 35.0458 4.3875 36.9958 6.3375C38.9458 8.2875 40.4896 10.5806 41.6271 13.2167C42.7646 15.8528 43.3333 18.6694 43.3333 21.6667C43.3333 24.6639 42.7646 27.4806 41.6271 30.1167C40.4896 32.7528 38.9458 35.0458 36.9958 36.9958C35.0458 38.9458 32.7528 40.4896 30.1167 41.6271C27.4806 42.7646 24.6639 43.3333 21.6667 43.3333ZM21.6667 39C26.5056 39 30.6042 37.3208 33.9625 33.9625C37.3208 30.6042 39 26.5056 39 21.6667C39 16.8278 37.3208 12.7292 33.9625 9.37083C30.6042 6.0125 26.5056 4.33333 21.6667 4.33333C16.8278 4.33333 12.7292 6.0125 9.37083 9.37083C6.0125 12.7292 4.33333 16.8278 4.33333 21.6667C4.33333 26.5056 6.0125 30.6042 9.37083 33.9625C12.7292 37.3208 16.8278 39 21.6667 39Z" fill="white"/>
</svg>
