<svg width="88" height="88" viewBox="0 0 88 88" fill="none" xmlns="http://www.w3.org/2000/svg">
<circle cx="44.0002" cy="44.0012" r="30.8" fill="#232536" fill-opacity="0.8"/>
<path d="M39.0497 57.7487L56.9247 46.2904C57.7802 45.7404 58.208 44.9765 58.208 43.9987C58.208 43.0209 57.7802 42.257 56.9247 41.707L39.0497 30.2487C38.133 29.6376 37.2011 29.5918 36.2538 30.1112C35.3066 30.6306 34.833 31.4404 34.833 32.5404V55.457C34.833 56.557 35.3066 57.3667 36.2538 57.8862C37.2011 58.4056 38.133 58.3598 39.0497 57.7487ZM43.9997 80.6654C38.9274 80.6654 34.1608 79.7029 29.6997 77.7779C25.2386 75.8529 21.358 73.2404 18.058 69.9404C14.758 66.6404 12.1455 62.7598 10.2205 58.2987C8.29551 53.8376 7.33301 49.0709 7.33301 43.9987C7.33301 38.9265 8.29551 34.1598 10.2205 29.6987C12.1455 25.2376 14.758 21.357 18.058 18.057C21.358 14.757 25.2386 12.1445 29.6997 10.2195C34.1608 8.29453 38.9274 7.33203 43.9997 7.33203C49.0719 7.33203 53.8386 8.29453 58.2997 10.2195C62.7608 12.1445 66.6413 14.757 69.9413 18.057C73.2413 21.357 75.8538 25.2376 77.7788 29.6987C79.7038 34.1598 80.6663 38.9265 80.6663 43.9987C80.6663 49.0709 79.7038 53.8376 77.7788 58.2987C75.8538 62.7598 73.2413 66.6404 69.9413 69.9404C66.6413 73.2404 62.7608 75.8529 58.2997 77.7779C53.8386 79.7029 49.0719 80.6654 43.9997 80.6654ZM43.9997 73.332C52.1886 73.332 59.1247 70.4904 64.808 64.807C70.4913 59.1237 73.333 52.1876 73.333 43.9987C73.333 35.8098 70.4913 28.8737 64.808 23.1904C59.1247 17.507 52.1886 14.6654 43.9997 14.6654C35.8108 14.6654 28.8747 17.507 23.1913 23.1904C17.508 28.8737 14.6663 35.8098 14.6663 43.9987C14.6663 52.1876 17.508 59.1237 23.1913 64.807C28.8747 70.4904 35.8108 73.332 43.9997 73.332Z" fill="white"/>
</svg>
