<svg width="40" height="40" viewBox="0 0 40 40" fill="none" xmlns="http://www.w3.org/2000/svg">
<circle cx="20" cy="20.001" r="14" fill="#232536" fill-opacity="0.3"/>
<path d="M17.7497 26.2487L25.8747 21.0404C26.2636 20.7904 26.4581 20.4431 26.4581 19.9987C26.4581 19.5543 26.2636 19.207 25.8747 18.957L17.7497 13.7487C17.3331 13.4709 16.9095 13.4501 16.4789 13.6862C16.0484 13.9223 15.8331 14.2904 15.8331 14.7904V25.207C15.8331 25.707 16.0484 26.0751 16.4789 26.3112C16.9095 26.5473 17.3331 26.5265 17.7497 26.2487ZM19.9997 36.6654C17.6942 36.6654 15.5275 36.2279 13.4997 35.3529C11.472 34.4779 9.70807 33.2904 8.20807 31.7904C6.70807 30.2904 5.52057 28.5265 4.64557 26.4987C3.77057 24.4709 3.33307 22.3043 3.33307 19.9987C3.33307 17.6931 3.77057 15.5265 4.64557 13.4987C5.52057 11.4709 6.70807 9.70703 8.20807 8.20703C9.70807 6.70703 11.472 5.51953 13.4997 4.64453C15.5275 3.76953 17.6942 3.33203 19.9997 3.33203C22.3053 3.33203 24.472 3.76953 26.4997 4.64453C28.5275 5.51953 30.2914 6.70703 31.7914 8.20703C33.2914 9.70703 34.4789 11.4709 35.3539 13.4987C36.2289 15.5265 36.6664 17.6931 36.6664 19.9987C36.6664 22.3043 36.2289 24.4709 35.3539 26.4987C34.4789 28.5265 33.2914 30.2904 31.7914 31.7904C30.2914 33.2904 28.5275 34.4779 26.4997 35.3529C24.472 36.2279 22.3053 36.6654 19.9997 36.6654ZM19.9997 33.332C23.722 33.332 26.8747 32.0404 29.4581 29.457C32.0414 26.8737 33.3331 23.7209 33.3331 19.9987C33.3331 16.2765 32.0414 13.1237 29.4581 10.5404C26.8747 7.95703 23.722 6.66537 19.9997 6.66537C16.2775 6.66537 13.1247 7.95703 10.5414 10.5404C7.95807 13.1237 6.6664 16.2765 6.6664 19.9987C6.6664 23.7209 7.95807 26.8737 10.5414 29.457C13.1247 32.0404 16.2775 33.332 19.9997 33.332Z" fill="white"/>
</svg>
