<svg width="16" height="13" viewBox="0 0 16 13" fill="none" xmlns="http://www.w3.org/2000/svg">
<path d="M5.03344 13.0005C11.0697 13.0005 14.3722 7.99829 14.3722 3.66173C14.3722 3.5211 14.3691 3.37735 14.3628 3.23673C15.0052 2.77213 15.5597 2.19666 16 1.53735C15.4017 1.80356 14.7664 1.97741 14.1159 2.05298C14.8009 1.64243 15.3137 0.99747 15.5594 0.237666C14.915 0.619527 14.2104 0.888896 13.4756 1.03423C12.9806 0.508196 12.326 0.159899 11.6131 0.043189C10.9003 -0.0735213 10.1688 0.0478552 9.53183 0.388553C8.89486 0.72925 8.38787 1.27029 8.08923 1.92803C7.7906 2.58577 7.71695 3.32357 7.87969 4.02735C6.575 3.96188 5.29862 3.62296 4.13332 3.03255C2.96802 2.44215 1.9398 1.61345 1.11531 0.600166C0.696266 1.32265 0.568038 2.17759 0.756687 2.99122C0.945337 3.80485 1.43671 4.51612 2.13094 4.98048C1.60975 4.96393 1.09998 4.82361 0.64375 4.5711V4.61173C0.643283 5.36992 0.905399 6.10488 1.38554 6.69167C1.86568 7.27846 2.53422 7.68086 3.2775 7.83048C2.7947 7.96257 2.28799 7.98182 1.79656 7.88673C2.0063 8.53878 2.41438 9.10908 2.96385 9.51804C3.51331 9.92701 4.17675 10.1542 4.86156 10.168C3.69895 11.0812 2.26278 11.5766 0.784375 11.5742C0.522191 11.5738 0.260266 11.5578 0 11.5261C1.5019 12.4897 3.24902 13.0014 5.03344 13.0005Z" fill="white" fill-opacity="0.7"/>
</svg>
