<svg width="32" height="32" viewBox="0 0 32 32" fill="none" xmlns="http://www.w3.org/2000/svg">
<path d="M10.4203 8.05071C10.7082 8.05077 10.9932 7.99411 11.2592 7.88397C11.5252 7.77383 11.7668 7.61237 11.9704 7.40882C12.174 7.20526 12.3354 6.9636 12.4456 6.69763C12.5557 6.43166 12.6124 6.14659 12.6123 5.85872C12.6123 4.44637 11.1905 3.64619 11.9804 1C9.63041 1.98738 8.22833 4.44637 8.22833 5.85872C8.22828 6.14659 8.28494 6.43165 8.39507 6.69762C8.50521 6.96359 8.66667 7.20525 8.87022 7.40881C9.07378 7.61236 9.31544 7.77382 9.58141 7.88396C9.84737 7.9941 10.1324 8.05076 10.4203 8.05071Z" fill="#444CFC"/>
<path d="M10.0963 15.317L10.8632 14.5483L12.5319 12.8795C12.7084 11.335 12.8254 9.8894 12.8776 8.65625C12.1998 9.25591 11.3262 9.58695 10.4212 9.58695C9.51626 9.58695 8.64258 9.25591 7.96484 8.65625C8.02606 10.082 8.17187 11.7958 8.39869 13.6194L10.0963 15.317Z" fill="#444CFC"/>
<path d="M2.22923 9.99996C2.12853 9.89926 2.00022 9.83068 1.86054 9.8029C1.72086 9.77511 1.57608 9.78938 1.4445 9.84388C1.31293 9.89838 1.20047 9.99067 1.12135 10.1091C1.04223 10.2275 0.999998 10.3667 1 10.5091V29.7223C1 29.9133 1.07587 30.0964 1.21091 30.2315C1.34595 30.3665 1.52911 30.4424 1.72008 30.4424H3.55027V29.1372C3.55027 28.9422 3.62772 28.7553 3.76558 28.6174C3.90343 28.4796 4.0904 28.4021 4.28536 28.4021C4.48032 28.4021 4.66729 28.4796 4.80514 28.6174C4.943 28.7553 5.02044 28.9422 5.02044 29.1372V30.4424H6.6106V29.1372C6.6106 29.0407 6.62961 28.9451 6.66655 28.8559C6.7035 28.7667 6.75764 28.6857 6.8259 28.6174C6.89416 28.5492 6.9752 28.495 7.06438 28.4581C7.15356 28.4211 7.24915 28.4021 7.34569 28.4021C7.44222 28.4021 7.5378 28.4211 7.62699 28.4581C7.71617 28.495 7.79721 28.5492 7.86547 28.6174C7.93373 28.6857 7.98787 28.7667 8.02481 28.8559C8.06176 28.9451 8.08077 29.0407 8.08077 29.1372V30.4424H9.67098V29.1372C9.67081 29.0406 9.68969 28.9448 9.72655 28.8555C9.76342 28.7662 9.81753 28.685 9.88581 28.6166C9.95408 28.5482 10.0352 28.4939 10.1244 28.4569C10.2137 28.4199 10.3094 28.4008 10.406 28.4008C10.5027 28.4008 10.5984 28.4199 10.6877 28.4569C10.7769 28.4939 10.858 28.5482 10.9263 28.6166C10.9946 28.685 11.0487 28.7662 11.0855 28.8555C11.1224 28.9448 11.1413 29.0406 11.1411 29.1372V30.4424H12.7313V29.1372C12.7313 28.9422 12.8087 28.7553 12.9466 28.6174C13.0845 28.4796 13.2714 28.4021 13.4664 28.4021C13.6613 28.4021 13.8483 28.4796 13.9862 28.6174C14.124 28.7553 14.2015 28.9422 14.2015 29.1372V30.4424H15.7916V29.1372C15.7916 28.9422 15.8691 28.7553 16.0069 28.6174C16.1448 28.4796 16.3318 28.4021 16.5267 28.4021C16.7217 28.4021 16.9086 28.4796 17.0465 28.6174C17.1843 28.7553 17.2618 28.9422 17.2618 29.1372V30.4424H20.9332C21.0756 30.4424 21.2148 30.4001 21.3333 30.321C21.4517 30.2419 21.544 30.1294 21.5985 29.9979C21.653 29.8663 21.6672 29.7215 21.6395 29.5818C21.6117 29.4421 21.5431 29.3138 21.4424 29.2131L2.22923 9.99996ZM5.68053 25.7618V20.0705L11.3719 25.7619L5.68053 25.7618Z" fill="#FD5A2C"/>
<path d="M11.3691 16.5905L11.9254 17.1468L13.5186 18.74L14.8489 20.0703L15.4592 19.46L14.3125 18.3133C14.2345 18.2353 14.1726 18.1427 14.1304 18.0408C14.0881 17.9388 14.0664 17.8296 14.0664 17.7193C14.0664 17.4964 14.1549 17.2827 14.3125 17.1252C14.47 16.9676 14.6837 16.8791 14.9065 16.8791C15.1293 16.8791 15.343 16.9676 15.5006 17.1252L16.6473 18.2719L18.0317 16.8876L16.907 15.7628C16.7627 15.623 16.6719 15.4372 16.65 15.2376C16.6282 15.0379 16.6769 14.8369 16.7875 14.6692C16.8578 14.5683 16.9493 14.4839 17.0557 14.4221C17.162 14.3602 17.2806 14.3224 17.4031 14.3113C17.5257 14.3002 17.6491 14.3161 17.7649 14.3578C17.8806 14.3995 17.9858 14.466 18.0731 14.5527L19.2198 15.6994L20.6042 14.3151L19.4575 13.1684C19.3795 13.0904 19.3176 12.9977 19.2753 12.8958C19.2331 12.7939 19.2114 12.6846 19.2114 12.5743C19.2114 12.464 19.2331 12.3547 19.2753 12.2528C19.3176 12.1509 19.3794 12.0583 19.4575 11.9802C19.5355 11.9022 19.6281 11.8403 19.73 11.7981C19.8319 11.7559 19.9412 11.7342 20.0515 11.7342C20.1618 11.7342 20.2711 11.7559 20.373 11.7981C20.475 11.8403 20.5676 11.9022 20.6456 11.9802L21.7923 13.127L23.1767 11.7426L22.052 10.6179C21.9078 10.4781 21.8169 10.2924 21.7951 10.0927C21.7732 9.89302 21.8218 9.692 21.9325 9.52435C22.0027 9.42336 22.0943 9.33898 22.2006 9.27713C22.307 9.21529 22.4256 9.17748 22.5481 9.16637C22.6706 9.15525 22.7941 9.1711 22.9098 9.2128C23.0256 9.2545 23.1308 9.32103 23.2181 9.40774L24.3648 10.5545L25.5202 9.39763C25.5876 9.3301 25.6255 9.23856 25.6255 9.14313C25.6254 9.0477 25.5875 8.95618 25.5201 8.88868L22.5509 5.91801C22.5175 5.88457 22.4778 5.85804 22.4341 5.83993C22.3905 5.82183 22.3436 5.81251 22.2963 5.8125C22.2491 5.81249 22.2022 5.8218 22.1585 5.83989C22.1149 5.85798 22.0752 5.8845 22.0417 5.91793L12.1378 15.8201L11.3691 16.5905Z" fill="#FEC5B5"/>
<path d="M26.4318 18.7422H18.7253L16.1221 21.3454L18.9519 24.1752H26.4318L25.4362 22.5029V20.4148L26.4318 18.7422Z" fill="#444CFC"/>
<path d="M30.7992 21.1242L28.9228 20.1641C28.9117 20.1862 28.8988 20.2083 28.8859 20.2304L28.3828 21.0763V21.8301L28.8859 22.6759C28.899 22.6973 28.9107 22.7194 28.9209 22.7423L30.7993 21.7804C30.8597 21.7495 30.9104 21.7025 30.9458 21.6446C30.9812 21.5867 30.9999 21.5202 30.9999 21.4523C30.9999 21.3845 30.9811 21.3179 30.9457 21.26C30.9103 21.2021 30.8596 21.1552 30.7992 21.1242Z" fill="#444CFC"/>
</svg>
