<svg width="24" height="24" viewBox="0 0 24 24" fill="none" xmlns="http://www.w3.org/2000/svg">
<path d="M14.9499 12.0002C14.9499 12.1335 14.9291 12.2585 14.8874 12.3752C14.8457 12.4919 14.7749 12.6002 14.6749 12.7002L10.0749 17.3002C9.89157 17.4835 9.65824 17.5752 9.3749 17.5752C9.09157 17.5752 8.85824 17.4835 8.6749 17.3002C8.49157 17.1169 8.3999 16.8835 8.3999 16.6002C8.3999 16.3169 8.49157 16.0835 8.6749 15.9002L12.5749 12.0002L8.6749 8.10019C8.49157 7.91686 8.3999 7.68353 8.3999 7.4002C8.3999 7.11686 8.49157 6.88353 8.6749 6.7002C8.85824 6.51686 9.09157 6.42519 9.3749 6.42519C9.65824 6.42519 9.89157 6.51686 10.0749 6.7002L14.6749 11.3002C14.7749 11.4002 14.8457 11.5085 14.8874 11.6252C14.9291 11.7419 14.9499 11.8669 14.9499 12.0002Z" fill="#1B2125"/>
</svg>
