<svg width="28" height="28" viewBox="0 0 28 28" fill="none" xmlns="http://www.w3.org/2000/svg">
<path d="M11.142 17.675L21.0295 7.7875C21.2628 7.55417 21.5399 7.4375 21.8607 7.4375C22.1816 7.4375 22.4587 7.55417 22.692 7.7875C22.9253 8.02083 23.042 8.29792 23.042 8.61875C23.042 8.93958 22.9253 9.21667 22.692 9.45L11.9587 20.1833C11.7253 20.4167 11.4531 20.5333 11.142 20.5333C10.8309 20.5333 10.5587 20.4167 10.3253 20.1833L5.30866 15.1667C5.07532 14.9333 4.96352 14.6563 4.97324 14.3354C4.98296 14.0146 5.10449 13.7375 5.33782 13.5042C5.57116 13.2708 5.84824 13.1542 6.16907 13.1542C6.48991 13.1542 6.76699 13.2708 7.00032 13.5042L11.142 17.675Z" fill="#444CFC"/>
</svg>
