<svg width="20" height="20" viewBox="0 0 20 20" fill="none" xmlns="http://www.w3.org/2000/svg">
<circle cx="10" cy="10" r="6.25" fill="white"/>
<path d="M8.83353 11.5033L7.04187 9.71159C6.88909 9.55881 6.69465 9.48242 6.45853 9.48242C6.22242 9.48242 6.02798 9.55881 5.8752 9.71159C5.72242 9.86436 5.64604 10.0588 5.64604 10.2949C5.64604 10.531 5.72242 10.7255 5.8752 10.8783L8.2502 13.2533C8.41687 13.4199 8.61131 13.5033 8.83353 13.5033C9.05576 13.5033 9.2502 13.4199 9.41687 13.2533L14.1252 8.54492C14.278 8.39214 14.3544 8.1977 14.3544 7.96159C14.3544 7.72547 14.278 7.53103 14.1252 7.37825C13.9724 7.22548 13.778 7.14909 13.5419 7.14909C13.3058 7.14909 13.1113 7.22548 12.9585 7.37825L8.83353 11.5033ZM10.0002 18.3366C8.84742 18.3366 7.76409 18.1178 6.7502 17.6803C5.73631 17.2428 4.85437 16.6491 4.10437 15.8991C3.35437 15.1491 2.76062 14.2671 2.32312 13.2533C1.88562 12.2394 1.66687 11.156 1.66687 10.0033C1.66687 8.85047 1.88562 7.76714 2.32312 6.75325C2.76062 5.73936 3.35437 4.85742 4.10437 4.10742C4.85437 3.35742 5.73631 2.76367 6.7502 2.32617C7.76409 1.88867 8.84742 1.66992 10.0002 1.66992C11.153 1.66992 12.2363 1.88867 13.2502 2.32617C14.2641 2.76367 15.146 3.35742 15.896 4.10742C16.646 4.85742 17.2398 5.73936 17.6773 6.75325C18.1148 7.76714 18.3335 8.85047 18.3335 10.0033C18.3335 11.156 18.1148 12.2394 17.6773 13.2533C17.2398 14.2671 16.646 15.1491 15.896 15.8991C15.146 16.6491 14.2641 17.2428 13.2502 17.6803C12.2363 18.1178 11.153 18.3366 10.0002 18.3366Z" fill="#2C55F3"/>
</svg>
