<svg width="28" height="28" viewBox="0 0 28 28" fill="none" xmlns="http://www.w3.org/2000/svg">
<circle cx="14" cy="14" r="14" fill="#1B2125"/>
<path d="M18.6665 8.4209C18.9263 8.4209 19.1475 8.50546 19.3208 8.67871C19.4942 8.85207 19.5796 9.07308 19.5796 9.33301C19.5796 9.59293 19.4942 9.81394 19.3208 9.9873L15.3081 13.999L19.3208 18.0127C19.494 18.186 19.5795 18.4063 19.5796 18.666C19.5796 18.9259 19.4942 19.1469 19.3208 19.3203C19.1474 19.4937 18.9264 19.5791 18.6665 19.5791C18.4068 19.579 18.1865 19.4935 18.0132 19.3203L13.9995 15.3076L9.98779 19.3203C9.81443 19.4937 9.59342 19.5791 9.3335 19.5791C9.07357 19.5791 8.85256 19.4937 8.6792 19.3203C8.50594 19.147 8.42139 18.9259 8.42139 18.666C8.42146 18.4064 8.50613 18.1859 8.6792 18.0127L12.6919 13.999L8.6792 9.9873C8.50584 9.81394 8.42139 9.59293 8.42139 9.33301C8.42139 9.07308 8.50584 8.85207 8.6792 8.67871C8.85256 8.50535 9.07357 8.4209 9.3335 8.4209C9.59342 8.4209 9.81443 8.50535 9.98779 8.67871L13.9995 12.6914L18.0132 8.67871C18.1864 8.50564 18.4069 8.42097 18.6665 8.4209Z" fill="white" stroke="white" stroke-width="0.2"/>
</svg>
