<svg width="192" height="192" viewBox="0 0 192 192" fill="none" xmlns="http://www.w3.org/2000/svg">
<g filter="url(#filter0_d_413_3659)">
<circle cx="96" cy="96" r="65" fill="#444CFC" fill-opacity="0.9" shape-rendering="crispEdges"/>
</g>
<circle cx="42" cy="42" r="21" fill="#444CFC" fill-opacity="0.3"/>
<circle cx="150" cy="42" r="21" fill="#444CFC" fill-opacity="0.3"/>
<circle cx="150" cy="150" r="21" fill="#444CFC" fill-opacity="0.3"/>
<circle cx="42" cy="150" r="21" fill="#444CFC" fill-opacity="0.3"/>
<circle cx="21" cy="96" r="21" fill="#444CFC" fill-opacity="0.3"/>
<circle cx="171" cy="96" r="21" fill="#444CFC" fill-opacity="0.3"/>
<circle cx="96" cy="21" r="21" fill="#444CFC" fill-opacity="0.3"/>
<circle cx="96" cy="171" r="21" fill="#444CFC" fill-opacity="0.3"/>
<mask id="mask0_413_3659" style="mask-type:alpha" maskUnits="userSpaceOnUse" x="31" y="31" width="130" height="130">
<circle cx="96" cy="96" r="65" fill="#444CFC"/>
</mask>
<g mask="url(#mask0_413_3659)">
<circle cx="42" cy="42" r="21.75" fill="white" fill-opacity="0.25" stroke="white" stroke-width="1.5"/>
<circle cx="150" cy="42" r="21.75" fill="white" fill-opacity="0.25" stroke="white" stroke-width="1.5"/>
<circle cx="150" cy="150" r="21.75" fill="white" fill-opacity="0.25" stroke="white" stroke-width="1.5"/>
<circle cx="42" cy="150" r="21.75" fill="white" fill-opacity="0.25" stroke="white" stroke-width="1.5"/>
<circle cx="21" cy="96" r="21.75" fill="white" fill-opacity="0.25" stroke="white" stroke-width="1.5"/>
<circle cx="171" cy="96" r="21.75" fill="white" fill-opacity="0.25" stroke="white" stroke-width="1.5"/>
<circle cx="96" cy="21" r="21.75" fill="white" fill-opacity="0.25" stroke="white" stroke-width="1.5"/>
<circle cx="96" cy="171" r="21.75" fill="white" fill-opacity="0.25" stroke="white" stroke-width="1.5"/>
</g>
<defs>
<filter id="filter0_d_413_3659" x="17" y="17" width="158" height="158" filterUnits="userSpaceOnUse" color-interpolation-filters="sRGB">
<feFlood flood-opacity="0" result="BackgroundImageFix"/>
<feColorMatrix in="SourceAlpha" type="matrix" values="0 0 0 0 0 0 0 0 0 0 0 0 0 0 0 0 0 0 127 0" result="hardAlpha"/>
<feOffset/>
<feGaussianBlur stdDeviation="7"/>
<feComposite in2="hardAlpha" operator="out"/>
<feColorMatrix type="matrix" values="0 0 0 0 0 0 0 0 0 0 0 0 0 0 0 0 0 0 0.15 0"/>
<feBlend mode="normal" in2="BackgroundImageFix" result="effect1_dropShadow_413_3659"/>
<feBlend mode="normal" in="SourceGraphic" in2="effect1_dropShadow_413_3659" result="shape"/>
</filter>
</defs>
</svg>
