<svg width="340" height="340" viewBox="0 0 340 340" fill="none" xmlns="http://www.w3.org/2000/svg">
<path fill-rule="evenodd" clip-rule="evenodd" d="M260.43 263.968L72.6043 76.1428L73.8564 74.8906L261.682 262.716L260.43 263.968Z" fill="#D7D7F5"/>
<path fill-rule="evenodd" clip-rule="evenodd" d="M77.7996 263.968L265.625 76.1428L264.373 74.8906L76.5474 262.716L77.7996 263.968Z" fill="#D7D7F5"/>
<path fill-rule="evenodd" clip-rule="evenodd" d="M302.813 170.01L37.1875 170.01V171.781L302.813 171.781V170.01Z" fill="#D7D7F5"/>
<path fill-rule="evenodd" clip-rule="evenodd" d="M170 24.7964L170 290.422H168.229L168.229 24.7964H170Z" fill="#D7D7F5"/>
<path d="M56.6668 169.99C56.6668 185.638 43.9815 198.323 28.3334 198.323C12.6853 198.323 0 185.638 0 169.99C0 154.342 12.6853 141.656 28.3334 141.656C43.9815 141.656 56.6668 154.342 56.6668 169.99Z" fill="#C7C9FE"/>
<path d="M340.001 169.99C340.001 185.638 327.315 198.323 311.667 198.323C296.019 198.323 283.334 185.638 283.334 169.99C283.334 154.342 296.019 141.656 311.667 141.656C327.315 141.656 340.001 154.342 340.001 169.99Z" fill="#C7C9FE"/>
<path d="M297.5 70.8334C297.5 86.4815 284.815 99.1668 269.167 99.1668C253.519 99.1668 240.833 86.4815 240.833 70.8334C240.833 55.1853 253.519 42.5 269.167 42.5C284.815 42.5 297.5 55.1853 297.5 70.8334Z" fill="#C7C9FE"/>
<path d="M99.1673 70.8334C99.1673 86.4815 86.482 99.1668 70.8339 99.1668C55.1858 99.1668 42.5005 86.4815 42.5005 70.8334C42.5005 55.1853 55.1858 42.5 70.8339 42.5C86.482 42.5 99.1673 55.1853 99.1673 70.8334Z" fill="#C7C9FE"/>
<path d="M99.1673 269.162C99.1673 284.81 86.482 297.495 70.8339 297.495C55.1858 297.495 42.5005 284.81 42.5005 269.162C42.5005 253.513 55.1858 240.828 70.8339 240.828C86.482 240.828 99.1673 253.513 99.1673 269.162Z" fill="#C7C9FE"/>
<path d="M297.5 269.162C297.5 284.81 284.815 297.495 269.167 297.495C253.519 297.495 240.833 284.81 240.833 269.162C240.833 253.513 253.519 240.828 269.167 240.828C284.815 240.828 297.5 253.513 297.5 269.162Z" fill="#C7C9FE"/>
<path d="M198.334 28.3334C198.334 43.9815 185.649 56.6668 170 56.6668C154.352 56.6668 141.667 43.9815 141.667 28.3334C141.667 12.6853 154.352 0 170 0C185.649 0 198.334 12.6853 198.334 28.3334Z" fill="#C7C9FE"/>
<path d="M198.334 311.662C198.334 327.31 185.648 339.995 170 339.995C154.352 339.995 141.667 327.31 141.667 311.662C141.667 296.013 154.352 283.328 170 283.328C185.648 283.328 198.334 296.013 198.334 311.662Z" fill="#C7C9FE"/>
<path d="M240.833 169.99C240.833 209.11 209.12 240.823 170 240.823C130.88 240.823 99.1665 209.11 99.1665 169.99C99.1665 130.869 130.88 99.1562 170 99.1562C209.12 99.1562 240.833 130.869 240.833 169.99Z" fill="#6067FC"/>
</svg>
