<svg width="28" height="28" viewBox="0 0 28 28" fill="none" xmlns="http://www.w3.org/2000/svg">
<path d="M6.9999 20.185L2.04157 15.2266C1.80823 14.9933 1.69643 14.7211 1.70615 14.41C1.71587 14.0988 1.8374 13.8266 2.07073 13.5933C2.30407 13.3794 2.57629 13.2676 2.8874 13.2579C3.19851 13.2482 3.47073 13.36 3.70407 13.5933L7.84573 17.735L9.47907 19.3683L8.63323 20.185C8.3999 20.3988 8.12768 20.5107 7.81657 20.5204C7.50546 20.5301 7.23323 20.4183 6.9999 20.185ZM13.5916 20.185L8.63323 15.2266C8.41934 15.0127 8.3124 14.7454 8.3124 14.4245C8.3124 14.1037 8.41934 13.8266 8.63323 13.5933C8.86657 13.36 9.14365 13.2433 9.46448 13.2433C9.78532 13.2433 10.0624 13.36 10.2957 13.5933L14.4082 17.7058L24.3249 7.78912C24.5582 7.55579 24.8305 7.44399 25.1416 7.45371C25.4527 7.46343 25.7249 7.58496 25.9582 7.81829C26.1721 8.05162 26.2839 8.32385 26.2936 8.63496C26.3034 8.94607 26.1916 9.21829 25.9582 9.45162L15.2249 20.185C14.9916 20.4183 14.7193 20.535 14.4082 20.535C14.0971 20.535 13.8249 20.4183 13.5916 20.185ZM14.4082 14.41L12.7457 12.7766L17.7041 7.81829C17.918 7.6044 18.1853 7.49746 18.5061 7.49746C18.827 7.49746 19.1041 7.6044 19.3374 7.81829C19.5707 8.05162 19.6874 8.32871 19.6874 8.64954C19.6874 8.97037 19.5707 9.24746 19.3374 9.48079L14.4082 14.41Z" fill="#444CFC"/>
</svg>
