<svg width="38" height="26" viewBox="0 0 38 26" fill="none" xmlns="http://www.w3.org/2000/svg">
<path d="M4.26665 0C2.36111 0 0.799988 1.56112 0.799988 3.46667V22.5333C0.799988 24.4389 2.36111 26 4.26665 26H33.7333C35.6389 26 37.2 24.4389 37.2 22.5333V3.46667C37.2 1.56112 35.6389 0 33.7333 0H4.26665ZM4.26665 1.73333H33.7333C33.9771 1.73333 34.2022 1.78244 34.4104 1.86875L20.2458 14.1781C19.457 14.8631 18.5145 14.8631 17.7271 14.1781L3.58957 1.86875C3.79779 1.78244 4.02284 1.73333 4.26665 1.73333ZM2.5604 3.27708L16.5896 15.4781C17.9693 16.6783 20.0033 16.6764 21.3833 15.4781L35.4396 3.27708C35.4463 3.34078 35.4666 3.40082 35.4666 3.46667V22.5333C35.4666 23.5086 34.7086 24.2667 33.7333 24.2667H4.26665C3.29139 24.2667 2.53332 23.5086 2.53332 22.5333V3.46667C2.53332 3.40082 2.55364 3.34078 2.5604 3.27708Z" fill="#444CFC"/>
</svg>
