<svg width="32" height="32" viewBox="0 0 32 32" fill="none" xmlns="http://www.w3.org/2000/svg">
<path d="M22.4289 20.286H9.57153C5.43586 20.286 2.07141 17.2423 2.07141 13.5006C2.07141 10.0612 4.91321 7.21214 8.58323 6.77263C9.12581 3.51018 12.2449 1 16.0002 1C19.7555 1 22.8746 3.51018 23.4172 6.77263C27.0872 7.21214 29.929 10.0612 29.929 13.5006C29.929 17.2423 26.5646 20.286 22.4289 20.286ZM16.0002 3.14289C13.0464 3.14289 10.643 5.22514 10.643 7.78547C10.643 8.37765 10.1632 8.85691 9.57153 8.85691C6.61777 8.85691 4.2143 10.9401 4.2143 13.5006C4.2143 16.061 6.61777 18.1431 9.57153 18.1431H22.4289C25.3826 18.1431 27.7861 16.0609 27.7861 13.5006C27.7861 10.9402 25.3826 8.85691 22.4289 8.85691C21.8372 8.85691 21.3574 8.37765 21.3574 7.78547C21.3574 5.22514 18.954 3.14289 16.0002 3.14289Z" fill="#FD5A2C"/>
<path d="M11.9294 2.57433L15.6946 1.82129H18.7068L20.9659 4.08042L22.472 7.09259L24.7311 8.59868L27.7433 10.1048L28.4964 12.3639V16.1291L26.2372 18.3882L23.9781 19.1413H20.2129H14.9416H9.67028L5.90506 18.3882L3.64593 16.8822L2.89288 13.87L3.64593 10.1048L7.41115 8.59868L9.67028 6.33955L11.9294 2.57433Z" fill="#FD5A2C"/>
<path d="M22.429 12.5282C22.1653 12.5282 21.9011 12.432 21.694 12.2362C20.1763 10.8049 18.1543 10.0169 15.9998 10.0169C13.8453 10.0169 11.8238 10.8049 10.3067 12.2351C9.87563 12.6422 9.19858 12.6202 8.79207 12.1912C8.3861 11.7602 8.40592 11.082 8.83654 10.6761C10.7529 8.86908 13.2965 7.87402 15.9997 7.87402C18.7028 7.87402 21.2471 8.86908 23.1639 10.6771C23.5945 11.0831 23.6143 11.7611 23.2084 12.1923C22.9977 12.4151 22.7136 12.5282 22.429 12.5282Z" fill="white"/>
<path d="M20.0183 14.8003C19.7547 14.8003 19.4904 14.7041 19.2833 14.5084C18.4097 13.6849 17.2435 13.2308 15.9999 13.2308C14.7563 13.2308 13.5907 13.6849 12.718 14.5084C12.2874 14.9133 11.6105 14.8945 11.2034 14.4644C10.7969 14.0344 10.8169 13.3564 11.2468 12.9493C12.5192 11.7492 14.2069 11.0879 15.9998 11.0879C17.7922 11.0879 19.4804 11.7492 20.7532 12.9493C21.1839 13.3553 21.2037 14.0333 20.7977 14.4644C20.5871 14.6873 20.3029 14.8003 20.0183 14.8003Z" fill="white"/>
<path d="M17.6071 17.0721C17.3434 17.0721 17.0792 16.9759 16.872 16.7801C16.3991 16.3344 15.6008 16.3344 15.1278 16.7801C14.6972 17.1872 14.0192 17.1663 13.6132 16.7351C13.2073 16.305 13.2271 15.627 13.6577 15.2211C14.9489 14.0031 17.051 14.0031 18.3422 15.2211C18.7728 15.627 18.7926 16.305 18.3866 16.7351C18.1758 16.959 17.8916 17.0721 17.6071 17.0721Z" fill="white"/>
<path d="M4.21434 31C2.44184 31 1 29.5581 1 27.7856C1 26.0131 2.44184 24.5713 4.21434 24.5713C5.98683 24.5713 7.42867 26.0131 7.42867 27.7856C7.42867 29.5581 5.98683 31 4.21434 31ZM4.21434 26.7142C3.62365 26.7142 3.14289 27.1944 3.14289 27.7856C3.14289 28.3768 3.62365 28.8571 4.21434 28.8571C4.80503 28.8571 5.28578 28.3768 5.28578 27.7856C5.28578 27.1944 4.80503 26.7142 4.21434 26.7142Z" fill="#444CFC"/>
<path d="M16.0003 31C14.2278 31 12.7859 29.5581 12.7859 27.7856C12.7859 26.0131 14.2278 24.5713 16.0003 24.5713C17.7728 24.5713 19.2146 26.0131 19.2146 27.7856C19.2146 29.5581 17.7728 31 16.0003 31ZM16.0003 26.7142C15.4096 26.7142 14.9288 27.1944 14.9288 27.7856C14.9288 28.3768 15.4096 28.8571 16.0003 28.8571C16.591 28.8571 17.0717 28.3768 17.0717 27.7856C17.0717 27.1944 16.591 26.7142 16.0003 26.7142Z" fill="#FEC5B5"/>
<path d="M27.7865 31C26.014 31 24.5721 29.5581 24.5721 27.7856C24.5721 26.0131 26.014 24.5713 27.7865 24.5713C29.559 24.5713 31.0008 26.0131 31.0008 27.7856C31.0008 29.5581 29.559 31 27.7865 31ZM27.7865 26.7142C27.1958 26.7142 26.715 27.1944 26.715 27.7856C26.715 28.3768 27.1958 28.8571 27.7865 28.8571C28.3772 28.8571 28.8579 28.3768 28.8579 27.7856C28.8579 27.1944 28.3772 26.7142 27.7865 26.7142Z" fill="#444CFC"/>
<path d="M16.0002 26.7137C15.4086 26.7137 14.9288 26.2344 14.9288 25.6422V22.4279C14.9288 21.8357 15.4086 21.3564 16.0002 21.3564C16.5919 21.3564 17.0717 21.8357 17.0717 22.4279V25.6422C17.0717 26.2344 16.5919 26.7137 16.0002 26.7137Z" fill="#FEC5B5"/>
<path d="M9.57155 28.8566H6.35721C5.76556 28.8566 5.28577 28.3773 5.28577 27.7851C5.28577 27.1929 5.76556 26.7137 6.35721 26.7137H8.5001V22.4279C8.5001 21.8357 8.9799 21.3564 9.57155 21.3564C10.1632 21.3564 10.643 21.8357 10.643 22.4279V27.7851C10.643 28.3773 10.1632 28.8566 9.57155 28.8566Z" fill="#444CFC"/>
<path d="M25.6436 28.8566H22.4292C21.8376 28.8566 21.3578 28.3773 21.3578 27.7851V22.4279C21.3578 21.8357 21.8376 21.3564 22.4292 21.3564C23.0209 21.3564 23.5007 21.8357 23.5007 22.4279V26.7137H25.6436C26.2352 26.7137 26.715 27.1929 26.715 27.7851C26.715 28.3773 26.2352 28.8566 25.6436 28.8566Z" fill="#444CFC"/>
</svg>
