<svg width="204" height="28" viewBox="0 0 204 28" fill="none" xmlns="http://www.w3.org/2000/svg">
<path d="M189.117 13.5974C190.021 12.7029 191.11 12.2557 192.382 12.2557C192.871 12.2557 193.332 12.3261 193.767 12.4622L188.239 18.9118C187.922 18.2877 187.76 17.6009 187.76 16.8479C187.76 15.5758 188.212 14.492 189.117 13.5974ZM194.514 21.4642L202.647 12.0056C202.647 12.0056 202.129 11.1452 201.352 10.1646C201.405 10.0863 201.307 10.001 200.862 9.57236C200.27 8.89201 199.579 8.2258 198.87 7.79997C196.996 6.42464 194.836 5.72503 192.382 5.72503C189.281 5.72503 186.646 6.80886 184.48 8.97549C182.313 11.1426 181.229 13.7667 181.229 16.8479C181.229 19.9293 182.313 22.558 184.48 24.7349C186.646 26.9118 189.281 28 192.382 28H203.504V21.44L194.514 21.4642ZM170.737 20.113C169.832 21.018 168.753 21.4698 167.501 21.4698C166.228 21.4698 165.14 21.018 164.236 20.113C163.331 19.2087 162.879 18.1202 162.879 16.8479C162.879 15.5758 163.331 14.492 164.236 13.5974C165.14 12.7029 166.228 12.2557 167.501 12.2557C168.753 12.2557 169.832 12.7029 170.737 13.5974C171.641 14.492 172.093 15.5758 172.093 16.8479C172.093 18.1202 171.641 19.2087 170.737 20.113ZM172.093 6.44082C171.417 5.96363 169.887 5.72503 167.501 5.72503C164.4 5.72503 161.766 6.80886 159.599 8.97549C157.432 11.1426 156.349 13.7667 156.349 16.8479C156.349 19.9293 157.432 22.558 159.599 24.7349C161.766 26.9118 164.4 28 167.501 28C170.582 28 173.206 26.9118 175.373 24.7349C177.54 22.558 178.624 19.9293 178.624 16.8479V0H172.093V6.44082ZM146.302 20.113C145.397 21.018 144.319 21.4698 143.066 21.4698C141.794 21.4698 140.705 21.018 139.801 20.113C138.896 19.2087 138.444 18.1202 138.444 16.8479C138.444 15.5758 138.896 14.492 139.801 13.5974C140.705 12.7029 141.794 12.2557 143.066 12.2557C144.319 12.2557 145.397 12.7029 146.302 13.5974C147.206 14.492 147.659 15.5758 147.659 16.8479C147.659 18.1202 147.206 19.2087 146.302 20.113ZM143.066 5.72503C139.965 5.72503 137.331 6.80886 135.164 8.97549C132.997 11.1426 131.914 13.7667 131.914 16.8479C131.914 19.9293 132.997 22.558 135.164 24.7349C137.331 26.9118 139.965 28 143.066 28C146.147 28 148.772 26.9118 150.938 24.7349C153.105 22.558 154.189 19.9293 154.189 16.8479C154.189 13.7667 153.105 11.1426 150.938 8.97549C148.772 6.80886 146.147 5.72503 143.066 5.72503ZM125.612 8.97549C127.778 11.1426 128.862 13.7667 128.862 16.8479V28H122.331V16.8479C122.331 15.5758 121.879 14.492 120.975 13.5974C120.07 12.7029 118.992 12.2557 117.739 12.2557C116.467 12.2557 115.378 12.7029 114.474 13.5974C113.569 14.492 113.117 15.5758 113.117 16.8479V28H106.587V16.8479C106.587 15.5758 106.135 14.492 105.23 13.5974C104.325 12.7029 103.247 12.2557 101.995 12.2557C100.722 12.2557 99.6339 12.7029 98.7294 13.5974C97.8248 14.492 97.3728 15.5758 97.3728 16.8479V28H90.8424V16.8479C90.8424 13.7667 91.9257 11.1426 94.0928 8.97549C96.2592 6.80886 98.8935 5.72503 101.995 5.72503C105.056 5.72503 107.69 6.78882 109.897 8.91589C112.064 6.78882 114.678 5.72503 117.739 5.72503C120.82 5.72503 123.445 6.80886 125.612 8.97549ZM80.7846 5.72503H87.3446V16.8479C87.3446 19.9491 86.2564 22.5832 84.0795 24.7501C81.9026 26.9169 79.2731 28 76.1922 28C73.1107 28 70.4864 26.9169 68.3201 24.7501C66.1532 22.5832 65.0696 19.9491 65.0696 16.8479C65.0696 13.7667 66.1532 11.1426 68.3201 8.97549C70.4864 6.80886 73.1107 5.72503 76.1922 5.72503H79.2934V12.2557H76.1922C74.9198 12.2557 73.8365 12.7078 72.942 13.6126C72.0472 14.5171 71.6 15.5953 71.6 16.8479C71.6 18.1202 72.0472 19.2087 72.942 20.113C73.8365 21.018 74.9198 21.4698 76.1922 21.4698C77.4643 21.4698 78.5527 21.018 79.4575 20.113C80.3618 19.2087 80.8144 18.1202 80.8144 16.8479L80.7846 5.72503ZM52.9736 13.5974C52.0691 14.492 51.6168 15.5758 51.6168 16.8479C51.6168 18.1202 52.0691 19.2087 52.9736 20.113C53.8782 21.018 54.9666 21.4698 56.2392 21.4698C57.4915 21.4698 58.5749 21.0126 59.4892 20.0978L60.2943 19.2929L64.9165 23.9148L64.1111 24.7501C61.9445 26.9169 59.3204 28 56.2392 28C53.1377 28 50.5034 26.9118 48.337 24.7349C46.1699 22.558 45.0866 19.9293 45.0866 16.8479C45.0866 13.7667 46.1699 11.1426 48.337 8.97549C50.5034 6.80886 53.1377 5.72503 56.2392 5.72503C59.3204 5.72503 61.9445 6.80886 64.1111 8.97549L64.9165 9.78065L60.2943 14.4026L59.4892 13.5974C58.5749 12.7029 57.4915 12.2557 56.2392 12.2557C54.9666 12.2557 53.8782 12.7029 52.9736 13.5974ZM32.545 13.5974C31.6405 14.492 31.1882 15.5758 31.1882 16.8479C31.1882 18.1202 31.6405 19.2087 32.545 20.113C33.4496 21.018 34.5378 21.4698 35.8104 21.4698C37.0627 21.4698 38.146 21.0126 39.0606 20.0978L39.8657 19.2929L44.4879 23.9148L43.6825 24.7501C41.5156 26.9169 38.8916 28 35.8104 28C32.7089 28 30.0748 26.9118 27.9084 24.7349C25.7413 22.558 24.658 19.9293 24.658 16.8479C24.658 13.7667 25.7413 11.1426 27.9084 8.97549C30.0748 6.80886 32.7089 5.72503 35.8104 5.72503C38.8916 5.72503 41.5156 6.80886 43.6825 8.97549L44.4879 9.78065L39.8657 14.4026L39.0606 13.5974C38.146 12.7029 37.0627 12.2557 35.8104 12.2557C34.5378 12.2557 33.4496 12.7029 32.545 13.5974ZM14.388 20.113C13.483 21.018 12.4049 21.4698 11.1526 21.4698C9.87999 21.4698 8.79177 21.018 7.88713 20.113C6.9825 19.2087 6.53034 18.1202 6.53034 16.8479C6.53034 15.5758 6.9825 14.492 7.88713 13.5974C8.79177 12.7029 9.87999 12.2557 11.1526 12.2557C12.4049 12.2557 13.483 12.7029 14.388 13.5974C15.2922 14.492 15.7447 15.5758 15.7447 16.8479C15.7447 18.1202 15.2922 19.2087 14.388 20.113ZM11.1526 5.72503C8.05117 5.72503 5.41683 6.80886 3.25053 8.97549C1.08342 11.1426 0 13.7667 0 16.8479C0 19.9293 1.08342 22.558 3.25053 24.7349C5.41683 26.9118 8.05117 28 11.1526 28C14.2338 28 16.8579 26.9118 19.0246 24.7349C21.1913 22.558 22.2751 19.9293 22.2751 16.8479C22.2751 13.7667 21.1913 11.1426 19.0246 8.97549C16.8579 6.80886 14.2338 5.72503 11.1526 5.72503Z" fill="url(#paint0_linear_2787_617)"/>
<defs>
<linearGradient id="paint0_linear_2787_617" x1="0" y1="14" x2="203.504" y2="14" gradientUnits="userSpaceOnUse">
<stop stop-color="#0000DC"/>
<stop offset="0.86" stop-color="#8026DB"/>
</linearGradient>
</defs>
</svg>
