<svg width="32" height="32" viewBox="0 0 32 32" fill="none" xmlns="http://www.w3.org/2000/svg">
<path d="M23.7691 0.659679C23.229 0.235844 22.5899 0.00341803 21.8994 0C21.7832 0 21.667 0.00341797 21.5508 0.00341797H9.26299C9.16387 0.00341797 9.06133 0 8.96221 0C8.20682 0.00683605 7.48562 0.290532 6.9319 0.803236C6.28931 1.39797 6.0022 2.22855 6.0022 3.08648V5.47226H24.8697V3.05913C24.8697 2.13285 24.5074 1.23732 23.7691 0.659679ZM17.7773 3.83161H13.0946C12.5204 3.83161 12.0931 3.35992 12.0692 2.8062C12.0453 2.25248 12.558 1.78079 13.0946 1.78079H17.7739C18.3481 1.78079 18.7754 2.24906 18.7993 2.8062C18.8266 3.35992 18.3139 3.83161 17.7773 3.83161Z" fill="#FD5A2C"/>
<path d="M6.00218 25.7734V28.6138C6.00218 28.836 5.99193 29.0616 6.01586 29.2803C6.10472 30.1724 6.55249 30.9483 7.28053 31.4713C7.77272 31.8233 8.38113 31.9908 8.97928 31.9942C10.1688 32.0011 11.3548 31.9908 12.5443 31.9908H18.5771C19.688 31.9908 20.8022 32.0045 21.9131 31.9942C23.5367 31.9806 24.8389 30.6612 24.8731 29.0411V25.7734H6.00218ZM16.4443 30.5894C16.4237 30.6031 16.3998 30.6168 16.3793 30.627C15.788 30.9483 15.0975 30.9244 14.5233 30.627C14.3798 30.5518 14.2396 30.463 14.1132 30.3536C13.5321 29.8648 13.286 28.959 13.5526 28.2481C13.8397 27.4825 14.4857 26.9663 15.2958 26.8945C15.2958 26.8945 15.2958 26.8945 15.2992 26.8945C15.3471 26.8877 15.3915 26.8843 15.4394 26.8877C15.4975 26.8877 15.5521 26.8911 15.6068 26.898C15.6068 26.898 15.6068 26.898 15.6103 26.898C16.4477 26.9868 17.2167 27.585 17.3774 28.4429C17.5346 29.2872 17.1962 30.1417 16.4443 30.5894Z" fill="#FEC5B5"/>
<path d="M24.8695 7.52344H6.00195V23.7249H24.8695V7.52344Z" fill="#444CFC"/>
</svg>
