<svg width="40" height="40" viewBox="0 0 40 40" fill="none" xmlns="http://www.w3.org/2000/svg">
<circle cx="20" cy="20" r="20" transform="matrix(-1 0 0 1 40 0)" fill="#E8ECF2"/>
<path d="M24.1954 19.9995C24.1954 20.1439 24.1729 20.2793 24.1277 20.4057C24.0826 20.5321 24.0059 20.6495 23.8975 20.7578L18.9142 25.7411C18.7156 25.9398 18.4628 26.0391 18.1559 26.0391C17.8489 26.0391 17.5961 25.9398 17.3975 25.7411C17.1989 25.5425 17.0996 25.2898 17.0996 24.9828C17.0996 24.6759 17.1989 24.4231 17.3975 24.2245L21.6225 19.9995L17.3975 15.7745C17.1989 15.5759 17.0996 15.3231 17.0996 15.0161C17.0996 14.7092 17.1989 14.4564 17.3975 14.2578C17.5961 14.0592 17.8489 13.9599 18.1559 13.9599C18.4628 13.9599 18.7156 14.0592 18.9142 14.2578L23.8975 19.2411C24.0059 19.3495 24.0826 19.4668 24.1277 19.5932C24.1729 19.7196 24.1954 19.855 24.1954 19.9995Z" fill="#232536"/>
</svg>
