<svg width="32" height="32" viewBox="0 0 32 32" fill="none" xmlns="http://www.w3.org/2000/svg">
<path d="M27.4702 4.79785H25.5453V5.98607H27.4702C28.3496 5.98607 29.0625 6.69902 29.0625 7.58424V21.4983H2.92156V7.57829C2.92156 6.69902 3.6345 5.98607 4.50786 5.98607H6.43278V4.79785H4.50786C2.97505 4.79785 1.73334 6.04547 1.73334 7.57829V23.8153C1.73334 23.851 1.73928 23.8866 1.74523 23.9223C1.75118 24.0708 1.75713 24.2194 1.78682 24.3619C1.81652 24.4986 1.86406 24.6293 1.9116 24.76C1.92346 24.8016 1.9294 24.8372 1.94725 24.8729C2.36309 25.8829 3.35529 26.5958 4.51381 26.5958H11.554V28.8118H8.9637C8.63694 28.8118 8.36959 29.0792 8.36959 29.4059C8.36959 29.7386 8.63694 30 8.9637 30H23.0204C23.3471 30 23.6145 29.7386 23.6145 29.4059C23.6145 29.0792 23.3471 28.8118 23.0204 28.8118H20.4241V26.5958H27.4643C28.4327 26.5958 29.2823 26.0967 29.7813 25.3481C29.7813 25.3481 29.7873 25.3481 29.7873 25.3422C29.8823 25.1996 29.9655 25.0451 30.0309 24.8788C30.0784 24.7778 30.1022 24.6649 30.1319 24.558C30.1497 24.4926 30.1794 24.4332 30.1913 24.3679C30.2269 24.1837 30.2507 23.9995 30.2507 23.8094V7.58424C30.2507 6.04547 29.0031 4.79785 27.4702 4.79785ZM16.4257 24.6411H15.5583C15.2256 24.6411 14.9642 24.3738 14.9642 24.047C14.9642 23.7203 15.2256 23.4529 15.5583 23.4529H16.4257C16.7525 23.4529 17.0198 23.7203 17.0198 24.047C17.0198 24.3738 16.7525 24.6411 16.4257 24.6411Z" fill="#444CFC"/>
<path d="M16.3629 5.3339L17.5911 6.33008V2H14.3862V6.33008L15.6144 5.3339C15.7235 5.24513 15.8558 5.20104 15.9886 5.20104C16.1215 5.20104 16.2538 5.24513 16.3629 5.3339Z" fill="#FEC5B5"/>
<path d="M9.99742 2C8.68442 2 7.62097 3.06348 7.62097 4.37645V16.3597C7.62097 17.6727 8.68442 18.7361 9.99742 18.7361H21.9806C23.2936 18.7361 24.3571 17.6727 24.3571 16.3597V4.37645C24.3571 3.06348 23.2936 2 21.9806 2H18.7793V7.57748C18.7793 7.80666 18.6476 8.01552 18.4405 8.11357C18.3593 8.15245 18.2722 8.17159 18.1852 8.17159C18.0512 8.17159 17.9189 8.12634 17.811 8.03873L15.9886 6.56041L14.1662 8.03873C13.9884 8.18262 13.7436 8.21221 13.5364 8.11357C13.3296 8.01552 13.1979 7.80666 13.1979 7.57748V2H9.99742Z" fill="#FD5A2C"/>
</svg>
