<svg width="40" height="40" viewBox="0 0 40 40" fill="none" xmlns="http://www.w3.org/2000/svg">
<g clip-path="url(#clip0_2606_10259)">
<path d="M12.0539 28.5624C10.6835 27.4125 9.92165 25.961 9.76827 24.2078C9.61488 22.4546 10.1131 20.8928 11.263 19.5224L19.1371 10.1384C19.9621 9.15526 21.0183 8.60739 22.3058 8.49475C23.5933 8.38211 24.7286 8.73824 25.7117 9.56315C26.6948 10.3881 27.2427 11.4443 27.3553 12.7318C27.4679 14.0193 27.1118 15.1546 26.2869 16.1377L19.1627 24.628C18.6377 25.2536 17.978 25.6012 17.1836 25.6707C16.3892 25.7402 15.6792 25.5125 15.0536 24.9875C14.428 24.4626 14.0804 23.8029 14.0109 23.0085C13.9414 22.2141 14.1691 21.504 14.6941 20.8784L21.2559 13.0584C21.4183 12.8648 21.616 12.7578 21.8489 12.7374C22.0817 12.717 22.295 12.7881 22.4886 12.9505C22.6822 13.113 22.7892 13.3107 22.8096 13.5435C22.83 13.7764 22.7589 13.9896 22.5964 14.1833L16.0347 22.0033C15.8222 22.2565 15.7297 22.5407 15.7573 22.8557C15.7848 23.1707 15.9252 23.4345 16.1785 23.647C16.4317 23.8594 16.7158 23.9519 17.0308 23.9243C17.3459 23.8968 17.6096 23.7564 17.8221 23.5031L24.9463 15.0128C25.4713 14.3872 25.699 13.6772 25.6295 12.8828C25.56 12.0884 25.2124 11.4287 24.5868 10.9037C23.9612 10.3788 23.2512 10.1511 22.4568 10.2206C21.6624 10.2901 21.0027 10.6376 20.4777 11.2632L12.6036 20.6473C11.7787 21.6304 11.4225 22.7657 11.5352 24.0532C11.6478 25.3407 12.1957 26.3969 13.1788 27.2218C14.1619 28.0467 15.2972 28.4029 16.5847 28.2902C17.8722 28.1776 18.9284 27.6297 19.7533 26.6466L27.065 17.9329C27.2275 17.7392 27.4252 17.6322 27.658 17.6119C27.8909 17.5915 28.1041 17.6625 28.2978 17.825C28.4914 17.9875 28.5984 18.1852 28.6188 18.418C28.6392 18.6509 28.5681 18.8641 28.4056 19.0577L21.0939 27.7715C19.944 29.1419 18.4925 29.9037 16.7393 30.0571C14.9861 30.2105 13.4243 29.7123 12.0539 28.5624Z" fill="white"/>
</g>
<defs>
<clipPath id="clip0_2606_10259">
<rect width="28" height="28" fill="white" transform="translate(18.2744 0.276367) rotate(40)"/>
</clipPath>
</defs>
</svg>
