<svg width="52" height="52" viewBox="0 0 52 52" fill="none" xmlns="http://www.w3.org/2000/svg">
<circle cx="25.9998" cy="26.0008" r="18.2" fill="#232536" fill-opacity="0.3"/>
<path d="M23.0756 34.1237L33.6381 27.3529C34.1437 27.0279 34.3965 26.5765 34.3965 25.9987C34.3965 25.4209 34.1437 24.9695 33.6381 24.6445L23.0756 17.8737C22.534 17.5126 21.9833 17.4855 21.4236 17.7924C20.8638 18.0994 20.584 18.5779 20.584 19.2279V32.7695C20.584 33.4195 20.8638 33.898 21.4236 34.2049C21.9833 34.5119 22.534 34.4848 23.0756 34.1237ZM26.0007 47.6654C23.0034 47.6654 20.1868 47.0966 17.5507 45.9591C14.9145 44.8216 12.6215 43.2779 10.6715 41.3279C8.72148 39.3779 7.17773 37.0848 6.04023 34.4487C4.90273 31.8126 4.33398 28.9959 4.33398 25.9987C4.33398 23.0015 4.90273 20.1848 6.04023 17.5487C7.17773 14.9126 8.72148 12.6195 10.6715 10.6695C12.6215 8.71953 14.9145 7.17578 17.5507 6.03828C20.1868 4.90078 23.0034 4.33203 26.0007 4.33203C28.9979 4.33203 31.8145 4.90078 34.4506 6.03828C37.0868 7.17578 39.3798 8.71953 41.3298 10.6695C43.2798 12.6195 44.8236 14.9126 45.9611 17.5487C47.0986 20.1848 47.6673 23.0015 47.6673 25.9987C47.6673 28.9959 47.0986 31.8126 45.9611 34.4487C44.8236 37.0848 43.2798 39.3779 41.3298 41.3279C39.3798 43.2779 37.0868 44.8216 34.4506 45.9591C31.8145 47.0966 28.9979 47.6654 26.0007 47.6654ZM26.0007 43.332C30.8395 43.332 34.9381 41.6529 38.2965 38.2945C41.6548 34.9362 43.334 30.8376 43.334 25.9987C43.334 21.1598 41.6548 17.0612 38.2965 13.7029C34.9381 10.3445 30.8395 8.66536 26.0007 8.66536C21.1618 8.66536 17.0632 10.3445 13.7048 13.7029C10.3465 17.0612 8.66732 21.1598 8.66732 25.9987C8.66732 30.8376 10.3465 34.9362 13.7048 38.2945C17.0632 41.6529 21.1618 43.332 26.0007 43.332Z" fill="white"/>
</svg>
