<svg width="24" height="24" viewBox="0 0 24 24" fill="none" xmlns="http://www.w3.org/2000/svg">
<circle cx="12" cy="12" r="11.25" stroke="#1B2125" stroke-width="1.5"/>
<path fill-rule="evenodd" clip-rule="evenodd" d="M12.0002 6.00098C11.5268 6.00098 11.1431 6.38473 11.1431 6.85812V11.147H6.85714C6.38376 11.147 6 11.5308 6 12.0042C6 12.4776 6.38376 12.8613 6.85714 12.8613H11.1431V17.1438C11.1431 17.6172 11.5268 18.001 12.0002 18.001C12.4736 18.001 12.8574 17.6172 12.8574 17.1438V12.8613H17.1429C17.6162 12.8613 18 12.4776 18 12.0042C18 11.5308 17.6162 11.147 17.1429 11.147H12.8574V6.85812C12.8574 6.38473 12.4736 6.00098 12.0002 6.00098Z" fill="#1B2125"/>
</svg>
