<svg width="40" height="40" viewBox="0 0 40 40" fill="none" xmlns="http://www.w3.org/2000/svg">
<circle cx="20" cy="20" r="20" transform="matrix(-1 0 0 1 40 0)" fill="#E8ECF2"/>
<path d="M14.8046 19.9995C14.8046 20.1439 14.8271 20.2793 14.8723 20.4057C14.9174 20.5321 14.9941 20.6495 15.1025 20.7578L20.0858 25.7411C20.2844 25.9398 20.5372 26.0391 20.8441 26.0391C21.1511 26.0391 21.4039 25.9398 21.6025 25.7411C21.8011 25.5425 21.9004 25.2898 21.9004 24.9828C21.9004 24.6759 21.8011 24.4231 21.6025 24.2245L17.3775 19.9995L21.6025 15.7745C21.8011 15.5759 21.9004 15.3231 21.9004 15.0161C21.9004 14.7092 21.8011 14.4564 21.6025 14.2578C21.4039 14.0592 21.1511 13.9599 20.8441 13.9599C20.5372 13.9599 20.2844 14.0592 20.0858 14.2578L15.1025 19.2411C14.9941 19.3495 14.9174 19.4668 14.8723 19.5932C14.8271 19.7196 14.8046 19.855 14.8046 19.9995Z" fill="#232536"/>
</svg>
