<svg width="32" height="32" viewBox="0 0 32 32" fill="none" xmlns="http://www.w3.org/2000/svg">
<path fill-rule="evenodd" clip-rule="evenodd" d="M23.8569 28.4252C23.8569 28.6202 23.8569 28.8159 23.8569 28.9966C23.8569 29.0345 23.8419 29.0709 23.8147 29.0974C23.7883 29.1245 23.7519 29.1395 23.714 29.1395H8.28543C8.24758 29.1395 8.21115 29.1245 8.18473 29.0974C8.15758 29.0709 8.14258 29.0345 8.14258 28.9966C8.14258 28.8159 8.14258 28.6202 8.14258 28.4252C8.14258 28.2359 8.21758 28.0538 8.35186 27.9202C8.48543 27.7859 8.66758 27.7109 8.85686 27.7109H23.1426C23.3319 27.7109 23.514 27.7859 23.6476 27.9202C23.7819 28.0538 23.8569 28.2359 23.8569 28.4252Z" fill="#FEC5B5"/>
<path fill-rule="evenodd" clip-rule="evenodd" d="M11 26.2801H21V24.8516H11V26.2801Z" fill="#FEC5B5"/>
<path fill-rule="evenodd" clip-rule="evenodd" d="M31 20.5781V21.2924C31 21.861 30.7743 22.406 30.3721 22.8074C29.9707 23.2096 29.4257 23.4353 28.8571 23.4353C22.8807 23.4353 9.11929 23.4353 3.14286 23.4353C2.57429 23.4353 2.02928 23.2096 1.62786 22.8074C1.22571 22.406 1 21.861 1 21.2924V20.5781H31Z" fill="#444CFC"/>
<path fill-rule="evenodd" clip-rule="evenodd" d="M31 19.1429H1V4.14286C1 3.57429 1.22571 3.02928 1.62786 2.62786C2.02928 2.22571 2.57429 2 3.14286 2C9.11929 2 22.8807 2 28.8571 2C29.4257 2 29.9707 2.22571 30.3721 2.62786C30.7743 3.02928 31 3.57429 31 4.14286V19.1429Z" fill="#FD5A2C"/>
</svg>
